<?xml version="1.0" encoding="utf-8"?>
<!-- Generator: Adobe Illustrator 26.0.2, SVG Export Plug-In . SVG Version: 6.00 Build 0)  -->
<svg version="1.1" id="Calque_1" xmlns="http://www.w3.org/2000/svg" xmlns:xlink="http://www.w3.org/1999/xlink" x="0px" y="0px"
	 viewBox="0 0 556.8 348.7" style="enable-background:new 0 0 556.8 348.7;" xml:space="preserve">
<style type="text/css">
	.st0{fill:#ED125F;}
	.st1{fill:#002838;}
	.st2{fill:#A8C3CE;}
	.st3{fill:#FFFFFF;}
</style>
<path class="st0" d="M524.9,324.2H189v-45.9h335.9c5.6,0,10.1,4.5,10.1,10.1v25.8C535,319.7,530.5,324.2,524.9,324.2"/>
<path class="st1" d="M198.3,324.2H36.4c-6.3,0-11.4-5.1-11.4-11.4v-23.2c0-6.3,5.1-11.4,11.4-11.4h187.3c0,0-14.2,6.7-14.2,25.1
	C209.5,321.7,198.3,324.2,198.3,324.2"/>
<path class="st2" d="M214.2,204L214.2,204c0.4,0.5,0.8,1.1,1.2,1.7L214.2,204z"/>
<path class="st0" d="M400.3,98.5c15.2,0,27.5,12.3,27.5,27.5s-12.3,27.5-27.5,27.5c-15.2,0-27.5-12.3-27.5-27.5
	S385.1,98.5,400.3,98.5 M400.3,164.7c21.3,0,38.7-17.4,38.7-38.7c0-21.3-17.4-38.7-38.7-38.7c-21.3,0-38.7,17.4-38.7,38.7
	C361.6,147.4,379,164.7,400.3,164.7"/>
<path class="st0" d="M187.2,98.5c15.2,0,27.5,12.3,27.5,27.5s-12.3,27.5-27.5,27.5c-15.2,0-27.5-12.3-27.5-27.5S172,98.5,187.2,98.5
	 M187.2,164.7c21.3,0,38.7-17.4,38.7-38.7c0-21.3-17.4-38.7-38.7-38.7c-21.3,0-38.7,17.4-38.7,38.7
	C148.5,147.4,165.8,164.7,187.2,164.7"/>
<path class="st0" d="M294,34.9c20.4,0,37,16.6,37,37c0,20.4-16.6,37-37,37c-20.4,0-37-16.6-37-37C257,51.5,273.6,34.9,294,34.9
	 M294,120.2c26.6,0,48.2-21.6,48.2-48.2c0-26.6-21.6-48.2-48.2-48.2c-26.6,0-48.2,21.6-48.2,48.2C245.8,98.6,267.4,120.2,294,120.2"
	/>
<path class="st1" d="M132.9,237c0,8.9-3.6,14.1-9.8,14.1c-2.7,0-4.7-0.7-6-2.1c-1.9-2-2.8-5.5-2.7-11.2v-28.4h-12.5v28.5
	c0,15.8,6.6,24,19.6,24.3c0.2,0,0.5,0,0.7,0c4.6,0,8.8-1.5,11.9-4l0.4,2.9h11.1v-51.7h-12.5V237z"/>
<path class="st1" d="M181.7,249.9c-0.9,0.7-2.1,0.9-3.9,0.8c-3.3-0.2-6.6-1.4-6.6-9.3v-20.7h14.7v-11.4h-14.7v-15.2h-5.1l-7.1,4.5
	v10.7h-6.9v11.4h6.9v20.7c0,13.3,6.6,20.7,18.5,20.8c3.1,0,6.2-0.8,9-2.4l1.9-1.1l-3.9-11.1L181.7,249.9z"/>
<path class="st1" d="M269,208.3c-4.9-0.1-9.4,1.3-12.7,4.1l-0.4-3h-11v51.7h12.5v-27.5c0-9,3.6-14.2,9.8-14.2
	c6.4,0.1,8.9,3.8,8.7,13.3v27c0,0.7,0.6,1.4,1.3,1.4h11.2v-28.4C288.6,216.9,282,208.7,269,208.3"/>
<path class="st1" d="M323.4,208.3c-4.4-0.1-8.4,1.1-11.5,3.3v-24.3h-12.5v73.7h11c0.8,0,1.5-0.7,1.5-1.5v-26c0-9,3.6-14.2,9.8-14.2
	c6.4,0.1,8.9,3.8,8.7,13.3v28.4H343v-28.4C343,216.9,336.4,208.7,323.4,208.3"/>
<path class="st1" d="M457.8,208.3c-6.4,0-11.8,2.7-15.2,7.6c-2.9-5-7.7-7.6-14.3-7.6c-4.1,0-7.6,1.3-10.3,3.8l-0.3-2.7h-11v51.7
	h12.5v-27.7c0-6.3,1.7-13.9,9.1-13.9c5,0,6.6,3.2,6.6,13.2v28.5h12.4v-28.4c0-3.1,0.6-13.3,9-13.3c5.7,0,6.6,3.8,6.6,12.3v29.3h12.5
	v-29.2C475.5,225.4,475.5,208.3,457.8,208.3"/>
<path class="st1" d="M496.8,229.6c1.2-7.3,5.8-10,9.8-10c6.1,0,9,4.9,9.8,10H496.8z M521.9,214.4c-3.9-4.1-9-6.1-15.3-6.1
	c-13.7,0-22.6,10.6-22.6,27c0,16.1,9.1,26.9,22.6,26.9c9.9,0,16.8-4.7,20.1-13.6l0.9-2.5l-10.9-3.8l-0.9,2.5
	c-1.2,3.4-4.7,5.8-8.8,5.9H507c-5.7,0-9.2-4.6-10.2-9.8h32l0.1-2.5C529.4,228.2,527,219.7,521.9,214.4"/>
<path class="st0" d="M459.5,192.3c0,3.2-2.6,5.8-5.8,5.8c-1.4,0-2.8-0.5-3.8-1.4l0,0c-9.5-8.6-21.8-13.3-34.7-13.3
	c-9.9,0-19.2,2.8-27.1,7.6c5.1,10.8,8.3,22.6,9.4,35l-0.4-0.2c-1.5-0.8-3.2-1.3-5.1-1.3c-2.3,0-4.5,0.8-6.2,2.1
	c0,0-1.7-11.7-3.2-17.1c-0.4-1.4-0.8-2.8-1.3-4.2c-0.8-2.3-1.7-4.6-2.7-6.8c-1.7,1.7-3.3,3.5-4.8,5.5c-1,0-2.1,0-3.1,0.1
	c-5.6,0.6-10.5,3.1-14.2,6.8c3.7-8.9,9.4-16.8,16.5-23.2C357,160.9,327.6,143,294,143c-33.5,0-62.9,18-79.1,44.8
	c11,9.7,18.5,23.2,20.7,38.3c-1.5-0.9-3.3-1.4-5.2-1.4c-2.3,0-4.4,0.8-6.1,2.1l-1.6-5.2c-0.5-2-1.2-3.9-2-5.8
	c-0.4-1-0.8-1.9-1.3-2.9c-0.7-1.4-1.5-2.8-2.3-4.2c-0.3-0.4-0.5-0.9-0.8-1.3c-0.1-0.2-0.3-0.4-0.4-0.6c-0.2-0.3-0.3-0.5-0.5-0.8
	l-0.2-0.2c-0.4-0.6-0.8-1.1-1.2-1.7c-1.5-2-3.1-3.8-4.8-5.5c-0.9,2-1.7,4.1-2.5,6.2c-1,0.2-2,0.5-2.9,0.8c-4.8,1.6-8.8,4.6-11.8,8.5
	c1.7-8.1,4.3-15.8,7.7-23c-7.9-4.8-17.1-7.6-27.1-7.6c-13,0-25.5,4.9-35.1,13.7c-1,0.9-2.4,1.5-3.9,1.5c-3.2,0-5.8-2.6-5.8-5.8
	c0-1.7,0.7-3.2,1.8-4.2l0.3-0.3c11.3-10.2,26.2-16.5,42.7-16.5c11.9,0,23.1,3.3,32.6,9c18.3-29.7,51.1-49.5,88.6-49.5
	c37.4,0,70.3,19.8,88.5,49.5c9.5-5.7,20.7-9,32.6-9c16.2,0,31,6.1,42.2,16.1l0.1,0.1l0.1,0.1l0,0
	C458.8,189.2,459.5,190.7,459.5,192.3"/>
<path class="st1" d="M53.2,231.6l6.8-17.3l3.8-10.9l3.7,10.8l6.8,17.4H53.2z M69.3,185h-11l-31.5,77.5h14.1l7.5-19h30.8l7.5,19h14.1
	L69.3,185z"/>
<path class="st1" d="M236.3,235.3c0,0.6,0,1.1,0,1.6c-0.5,13.8-7.7,23.2-19,25c-1.3,0.2-2.6,0.3-4,0.3c-0.4,0-0.7,0-1.1,0
	c-2.4-0.1-4.7-0.5-6.8-1.2c-9.2-3.1-14.9-12-15.3-24.3c0-0.4,0-0.8,0-1.2v-0.1c0-0.4,0-0.8,0-1.2c0.4-12.4,6.1-21.3,15.3-24.5
	c2.1-0.7,4.3-1.1,6.7-1.2c0.6,0.8,1.1,1.6,1.6,2.5c1.8,3.1,3.3,6.3,4.4,9.7c0.1,0.3-0.3,0.6-0.6,0.4c-1.3-0.7-2.8-1.1-4.3-1.1
	c-6.3,0-11.5,6.3-11.5,15.4c0,9.2,5.1,15.3,11.5,15.3c1.8,0,3.6-0.5,5.1-1.5c3.7-2.4,6.3-7.4,6.3-13.8l0-0.3c0-3,2.2-5.8,5.2-6.1
	c3.5-0.4,6.5,2.4,6.5,5.8C236.3,234.9,236.3,235.1,236.3,235.3"/>
<path class="st1" d="M398,235.3c0,0.6,0,1.1,0,1.6c-0.5,13.8-7.7,23.2-19,25c-1.3,0.2-2.6,0.3-4,0.3c-0.4,0-0.7,0-1.1,0
	c-2.4-0.1-4.7-0.5-6.8-1.2c-9.2-3.1-14.9-12-15.3-24.3c0-0.4,0-0.8,0-1.2v-0.1c0-0.4,0-0.8,0-1.2c0.4-12.4,6.1-21.3,15.3-24.5
	c2.1-0.7,4.3-1.1,6.7-1.2c0.6,0.8,1.1,1.6,1.6,2.5c1.8,3.1,3.3,6.3,4.4,9.7c0.1,0.3-0.3,0.6-0.6,0.4c-1.3-0.7-2.8-1.1-4.3-1.1
	c-6.3,0-11.5,6.3-11.5,15.4c0,9.2,5.1,15.3,11.5,15.3c1.8,0,3.6-0.5,5.1-1.5c3.7-2.4,6.3-7.4,6.3-13.8V235c0-3,2.1-5.8,5.2-6.1
	c3.5-0.4,6.5,2.4,6.5,5.8C398,234.9,398,235.1,398,235.3"/>
<path class="st3" d="M39.2,291.5c0.4,0,0.8,0.5,0.9,0.9c0.2,5.8,0.2,11.8,0.7,17.6c0.8-0.2,2.2-0.5,3.3-0.5c0.5,0,0.9,0.1,0.9,0.6
	c0,0.3-0.1,0.6-0.6,0.8c-0.9,0.3-2.2,0.3-3.2,0.5c-0.4,0.1-0.7,0.3-1.2,0.3c-0.3,0-0.8-0.4-0.9-0.7c-0.3-3.1-0.2-6.4-0.4-9.5
	l-0.4-6.4v-3.3C38.8,291.6,39,291.5,39.2,291.5"/>
<path class="st3" d="M46.2,292.4c0-0.4,0.2-0.6,0.7-0.6c0.2,0,1,0.1,1,0.5v8.7c0,0.3-0.3,0.8-0.7,0.8c-0.3,0-0.4-0.1-0.7-0.3
	C46.3,298.5,46.2,295.4,46.2,292.4"/>
<path class="st3" d="M53.2,305.2l3.5,0.1l-1.9-12.1L53.2,305.2z M52.8,306.8l-0.2,0.2l-0.5,2.9c-0.1,0.4,0,1.5-0.8,1.5
	c-0.4,0-0.6-0.7-0.6-0.9c2.9-18.8,2.9-18.8,2.9-18.8c0.1-0.5,0.3-1.2,1-1.2c0.3,0,0.7,0.1,0.9,0.4l0.2,0.5c1.6,5.9,2.4,12,3.1,18.1
	l0.2,1.7l0,0.1c-0.2,0.5-0.3,0.7-0.8,0.7h-0.1c-0.2,0-0.4,0-0.5-0.2l-0.7-4.9H52.8z"/>
<path class="st3" d="M63.9,292.8c0.2-0.5,0.3-0.5,0.9-0.5c0.8,0,0.8,0.3,0.8,1.1l0,0.5l-0.8,17.7c-0.1,1.1-1.6,1.2-1.6,0.5
	L63.9,292.8z"/>
<path class="st3" d="M71.4,302.2c0,2.3-0.1,6.2,0,8.9c3.4-0.5,4.4-5.6,4.4-8.5c0-2-0.1-10-4-10h-0.2
	C71.5,294.1,71.4,300.8,71.4,302.2 M69.8,307.2c0-2.2,0-12.6,0-14.8v-0.1c0-0.6,0.2-1.2,0.8-1.4h0.2c1.1,0,2.3,0.2,3.1,0.9
	c3,2.5,3.5,6.9,3.4,10.5c-0.2,5-1.5,9.8-6,10.3c-0.9,0.1-1.5,0-1.5-1V307.2z"/>
<path class="st3" d="M81.5,293.6c0-0.5,0.5-0.9,1-0.9h4.4c0.2,0,0.7,0.4,0.7,0.5l0,0.1c0,0.5-0.7,0.8-1.2,0.8h-3.3l0.1,8.6l3-0.4
	h0.1c1.3,0,0.8,1.2-0.3,1.3l-2.8,0.4l-0.1,6.7c0.2,0,1.2,0,1.4,0c1.9,0,3.2-0.6,3.3,0.6c0.1,0.9-6.2,0.8-6.2,0.3L81.5,293.6z"/>
<path class="st3" d="M104.3,305.2l3.5,0.1l-1.9-12.1L104.3,305.2z M106.9,289.8c-0.2,0-0.2,0-0.4-0.1l-1-0.7l-1.4-0.8
	c-0.2-0.1-0.1-0.1-0.1-0.3c0-0.3,0.4-0.6,0.8-0.6l0.2,0.1l1.8,1.1c0.3,0.2,0.8,0.4,0.8,0.9C107.6,289.6,107.3,289.8,106.9,289.8
	 M103.9,306.8l-0.2,0.2l-0.5,2.9c-0.1,0.4,0,1.5-0.8,1.5c-0.4,0-0.6-0.7-0.6-0.9c2.9-18.8,2.9-18.8,2.9-18.8c0.1-0.5,0.3-1.2,1-1.2
	c0.3,0,0.7,0.1,0.9,0.4l0.2,0.5c1.6,5.9,2.4,12,3.1,18.1l0.2,1.7l0,0.1c-0.2,0.5-0.3,0.7-0.8,0.7h-0.1c-0.2,0-0.4,0-0.5-0.2
	l-0.7-4.9H103.9z"/>
<path class="st3" d="M125.5,302.2c0,2.3-0.1,6.2,0,8.9c3.4-0.5,4.4-5.6,4.4-8.5c0-2-0.1-10-4-10h-0.2
	C125.7,294.1,125.5,300.8,125.5,302.2 M124,307.2c0-2.2,0-12.6,0-14.8v-0.1c0-0.6,0.2-1.2,0.8-1.4h0.2c1.1,0,2.3,0.2,3.1,0.9
	c3,2.5,3.5,6.9,3.4,10.5c-0.2,5-1.5,9.8-6,10.3c-0.9,0.1-1.5,0-1.5-1V307.2z"/>
<path class="st3" d="M136.2,300.8c0,7.6,1.5,9.6,3.5,9.6c2.7,0,2.7-6.6,2.7-8.2v-0.1c0-2-0.6-9.2-3.2-9.2c-2.1,0-3,4.3-3,5.6
	C136.2,299.3,136.2,300.1,136.2,300.8 M139.7,291.6c5,0.5,4.2,11.5,4,15c-0.2,1.9-1.2,5.2-4,5.2c-4.9,0-5.1-7.8-5.1-10.8
	C134.6,297.6,134.8,291.6,139.7,291.6"/>
<path class="st3" d="M157.1,296l-3,6.9c-0.1,0.5-1.4,0.6-1.6,0.3l-0.2-0.3c-0.7-2.2-1.4-4.3-2.3-6.4c-0.5,4.9,0.1,9.8-0.6,14.7
	c-0.3,0.2-0.5,0.2-0.9,0.2c-0.6,0-0.6-0.1-0.6-0.6c0-0.8,0.2-1.4,0.2-17.7c0-0.8,1.3-1.4,1.6-0.5l3.4,8.6c0.8-0.9,3.2-8.1,3.8-9.1
	c0.3-0.5,0.9-0.4,1.6,0c0,0,0.2,8.5,0.2,12.2c0,2.3,0.2,4.7,0.2,7c0,0.5-0.3,0.9-0.9,0.9c-0.4,0-0.6-0.1-0.7-0.5
	C157.5,306.4,157.4,301.2,157.1,296"/>
<path class="st3" d="M163.9,292.8c0.2-0.5,0.3-0.5,0.9-0.5c0.8,0,0.8,0.3,0.8,1.1l0,0.5l-0.8,17.7c-0.1,1.1-1.6,1.2-1.6,0.5
	L163.9,292.8z"/>
<path class="st3" d="M176.5,292.8c0,0.9-1.6,0.7-2,0.7h-0.2c-2.7,0-3.9,5.2-3.9,8.1c0,3.3,0.2,5.7,2.7,7.6c1.2,0.9,3,0,3.4,0.7
	c0.6,0.9-0.5,1.2-1.4,1.2c-6.3-0.1-7.3-7.9-6-13c0.7-2.7,2.4-6.3,6-6.3C175.8,291.9,176.5,292.2,176.5,292.8"/>
<path class="st3" d="M181.4,292.8c0.2-0.5,0.3-0.5,0.9-0.5c0.8,0,0.8,0.3,0.8,1.1l0,0.5l-0.8,17.7c-0.1,1.1-1.6,1.2-1.6,0.5
	L181.4,292.8z"/>
<path class="st3" d="M188,312.2c0,0-0.4-13.3-0.4-15.1c0-0.5-0.3-4.5-0.4-4.9V292c0-0.2,0-0.3,0.2-0.5l0.5-0.1c0.5,0,0.7,0,0.9,0.5
	c0.3,1,0.1,1.6,0.2,2.6c0.1,5.3,0.2,10.6,0.5,16h0.2c1.2,0,2.3-0.4,3.5-0.4c0.4,0,0.9,0.1,0.9,0.6c0,0.3-0.2,0.5-0.6,0.6L188,312.2z
	"/>
<path class="st3" d="M197.2,293.6c0-0.5,0.5-0.9,1-0.9h4.4c0.2,0,0.7,0.4,0.7,0.5l0,0.1c0,0.5-0.7,0.8-1.2,0.8h-3.3l0.1,8.6l3-0.4
	h0.1c1.3,0,0.8,1.2-0.3,1.3L199,304l-0.1,6.7c0.2,0,1.2,0,1.4,0c1.9,0,3.2-0.6,3.3,0.6c0.1,0.9-6.2,0.8-6.2,0.3L197.2,293.6z"/>
<path class="st3" d="M219.1,302.3c0.2,0,0.4-0.1,0.6-0.2c1.6-1.4,2.5-2.9,2.5-5c0-1.3-1-3.8-2.9-3.8L219.1,302.3z M217.6,306.1
	c0-2.1,0.1-11.7,0.2-13.8c0.1-0.4,0.8-0.3,1.2-0.3c2.9,0,5,2.4,5,5c0,2.8-2,5.9-4.8,7.1c0,0.4-0.1,2.4-0.1,2.8c0,0.9,0,4.9,0,5.7
	c-0.2,0.3-0.6,0.3-0.9,0.3c-0.2,0-0.3,0-0.5-0.2V306.1z"/>
<path class="st3" d="M228.8,300.8c0,7.6,1.5,9.6,3.5,9.6c2.7,0,2.7-6.6,2.7-8.2v-0.1c0-2-0.6-9.2-3.2-9.2c-2.1,0-3,4.3-3,5.6
	C228.8,299.3,228.8,300.1,228.8,300.8 M232.4,291.6c5,0.5,4.2,11.5,4,15c-0.2,1.9-1.2,5.2-4,5.2c-4.9,0-5.1-7.8-5.1-10.8
	C227.2,297.6,227.4,291.6,232.4,291.6"/>
<path class="st3" d="M244.9,310.9c-0.2,0-0.4,0-0.7-0.1c-3.4-0.4-3.7-8.3-3.9-17.3l-0.1-1.3v-0.1c0-0.6,1.5-0.5,1.7,0
	c0.5,0.8-0.8,17.6,3,17.6c1,0,1.3-1.5,1.3-2.2c0.1-3.2,0-10.4-0.1-15.4c0.1-0.4,0.3-0.5,0.8-0.5c0.4,0,0.8,0.1,0.9,0.5
	c0.1,4.6-0.1,9.2,0.1,13.9C247.8,308.3,247.8,310.9,244.9,310.9"/>
<path class="st3" d="M254.2,300.2c2,0,2.7-3.4,2.7-4.6c0-1.2-0.6-2.8-2.2-2.8c-0.4,0-0.7,0.2-0.7,0.7c0,2.3-0.2,4.1-0.2,6.4
	C253.9,300.1,254.1,300.2,254.2,300.2 M252.1,310.2c0-5.8,0.2-11.7,0.4-17.5c0.1-1.2,0.5-1.2,1.6-1.2h0.3c2.5,0,4.2,1.6,4.2,3.8v0.3
	c0,1.9-0.5,4.1-2.4,5.3c0.1,0.1,0.8,0.8,0.9,1c1.2,1.5,0.9,5.2,1.1,7c0,0.2,0.2,1.3,0.2,1.5v0.2c0,0.4-0.4,0.5-0.8,0.5h0
	c-0.3,0-0.7,0-0.8-0.4c0-0.9-0.3-4.8-0.3-5.7c-0.1-1.3-0.4-3-2.1-3h-0.4c-0.1,0.2-0.2,1.3-0.2,1.5c0,0.2-0.2,6-0.2,8.2
	c0,0.5,0.1,1-0.6,1c-0.3,0-0.6-0.1-0.8-0.4V310.2z"/>
<path class="st3" d="M277.1,310.9c-0.2,0-0.4,0-0.7-0.1c-3.4-0.4-3.7-8.3-3.9-17.3l-0.1-1.3v-0.1c0-0.6,1.5-0.5,1.7,0
	c0.5,0.8-0.7,17.6,3,17.6c1,0,1.3-1.5,1.3-2.2c0.1-3.2,0-10.4-0.1-15.4c0.1-0.4,0.3-0.5,0.8-0.5c0.4,0,0.8,0.1,0.9,0.5
	c0.1,4.6-0.1,9.2,0.1,13.9C280,308.3,280,310.9,277.1,310.9"/>
<path class="st3" d="M284.5,293.4c-0.1-1,1.5-1.7,2.1-0.2l5.7,14.3c0-1.1,0.2-7.5,0.4-10c0.1-1.6,0-3.1,0.3-4.6
	c0-0.3,0.3-0.3,0.7-0.3c0.7,0,0.7,0.1,0.7,0.6c-0.1,2.7-0.5,5.4-0.6,8.1c-0.1,1.5-0.3,8.7-0.3,10.2c-0.2,0.5-1.1,0.2-1.3-0.2
	c-0.3-0.5-0.5-1.1-6.4-15.7l-0.2,15.9c0,0.8-1.4,0.7-1.4,0.2L284.5,293.4z"/>
<path class="st3" d="M298.6,293.6c0-0.5,0.5-0.9,1-0.9h4.4c0.2,0,0.7,0.4,0.7,0.5l0,0.1c0,0.5-0.7,0.8-1.2,0.8h-3.3l0.1,8.6l3-0.4
	h0.1c1.3,0,0.8,1.2-0.3,1.3l-2.8,0.4l-0.1,6.7c0.2,0,1.2,0,1.4,0c1.9,0,3.2-0.6,3.3,0.6c0.1,0.9-6.2,0.8-6.2,0.3L298.6,293.6z"/>
<path class="st3" d="M318.9,291.4c0.2-0.2,1.1-0.5,1.3-0.3l0.5,0.5l2.4,15.9c0.9-4.7,1.9-10.7,2.8-15.4c0-0.9,0.4-1,0.9-1
	c0.4,0,0.7,0.1,0.9,0.5c-1.2,4.3-1.9,8.7-2.7,13.1l-1.1,6.6c-0.2,0.5-0.5,0.5-0.9,0.5c-0.3,0-0.6,0-0.7-0.3
	C320.8,305,320.2,298,318.9,291.4"/>
<path class="st3" d="M331.4,292.8c0.2-0.5,0.3-0.5,0.9-0.5c0.8,0,0.8,0.3,0.8,1.1l0,0.5l-0.8,17.7c-0.1,1.1-1.6,1.2-1.6,0.5
	L331.4,292.8z"/>
<path class="st3" d="M337.3,293.6c0-0.5,0.5-0.9,1-0.9h4.4c0.2,0,0.7,0.4,0.7,0.5l0,0.1c0,0.5-0.7,0.8-1.2,0.8h-3.3l0.1,8.6l3-0.4
	h0.1c1.3,0,0.8,1.2-0.3,1.3l-2.8,0.4l-0.1,6.7c0.2,0,1.2,0,1.4,0c1.9,0,3.2-0.6,3.3,0.6c0.1,0.9-6.2,0.8-6.2,0.3L337.3,293.6z"/>
<path class="st3" d="M360.9,310.5c2.9,0,3.9-2.8,3.9-5.3c0-2.9-1.4-6.4-5-6.4c0,3.9,0.3,7.8,0.6,11.6
	C360.6,310.5,360.7,310.5,360.9,310.5 M359.7,297.2c1.4,0,2.4-1.5,2.4-2.9c0-1.5-1.3-2-2.8-1.3L359.7,297.2z M363.5,294.2
	c0,1.3-0.6,2.6-1.5,3.5c3.2,1.8,4.4,4,4.4,7.5c0,3.7-2.2,6.9-6.5,6.9c-0.2,0-0.7,0-1-0.4c-0.3-4-0.3-7.9-0.7-12.6l-0.6-6.2v-0.5
	C359.5,290.4,363.5,291,363.5,294.2"/>
<path class="st3" d="M369.1,293.6c0-0.5,0.5-0.9,1-0.9h4.4c0.2,0,0.7,0.4,0.7,0.5l0,0.1c0,0.5-0.7,0.8-1.2,0.8h-3.3l0.1,8.6l3-0.4
	h0.1c1.3,0,0.8,1.2-0.3,1.3l-2.8,0.4l-0.1,6.7c0.2,0,1.2,0,1.4,0c1.9,0,3.2-0.6,3.3,0.6c0.1,0.9-6.2,0.8-6.2,0.3L369.1,293.6z"/>
<path class="st3" d="M380.4,312.2c0,0-0.4-13.3-0.4-15.1c0-0.5-0.3-4.5-0.4-4.9V292c0-0.2,0-0.3,0.2-0.5l0.5-0.1
	c0.5,0,0.7,0,0.9,0.5c0.2,1,0.1,1.6,0.2,2.6c0.1,5.3,0.2,10.6,0.5,16h0.2c1.2,0,2.3-0.4,3.5-0.4c0.4,0,0.9,0.1,0.9,0.6
	c0,0.3-0.2,0.5-0.6,0.6L380.4,312.2z"/>
<path class="st3" d="M390.6,312.2c0,0-0.4-13.3-0.4-15.1c0-0.5-0.3-4.5-0.4-4.9V292c0-0.2,0-0.3,0.2-0.5l0.5-0.1
	c0.5,0,0.7,0,0.9,0.5c0.2,1,0.1,1.6,0.2,2.6c0.1,5.3,0.2,10.6,0.5,16h0.2c1.2,0,2.3-0.4,3.5-0.4c0.4,0,0.9,0.1,0.9,0.6
	c0,0.3-0.2,0.5-0.6,0.6L390.6,312.2z"/>
<path class="st3" d="M399.9,293.6c0-0.5,0.5-0.9,1-0.9h4.4c0.2,0,0.7,0.4,0.7,0.5l0,0.1c0,0.5-0.7,0.8-1.2,0.8h-3.3l0.1,8.6l3-0.4
	h0.1c1.3,0,0.8,1.2-0.3,1.3l-2.8,0.4l-0.1,6.7c0.2,0,1.2,0,1.4,0c1.9,0,3.2-0.6,3.3,0.6c0.1,0.9-6.2,0.8-6.2,0.3L399.9,293.6z"/>
<path class="st3" d="M420.2,293.6c0-0.5,0.5-0.9,1-0.9h4.4c0.2,0,0.7,0.4,0.7,0.5l0,0.1c0,0.5-0.7,0.8-1.2,0.8h-3.3l0.1,8.6l3-0.4
	h0.1c1.3,0,0.8,1.2-0.3,1.3L422,304l-0.1,6.7c0.2,0,1.2,0,1.4,0c1.9,0,3.2-0.6,3.3,0.6c0.1,0.9-6.2,0.8-6.2,0.3L420.2,293.6z"/>
<path class="st3" d="M432.5,293.2c-1.7,0.1-2.5,0.1-2.5-0.4c0.1-0.9,0.1-1.2,2.9-1h2.3c0.6,0,1.6,0.1,1.6,0.9c0,0.2-0.3,0.5-0.6,0.5
	H434l0.5,16.4c0,0.2-0.6,0.4-0.7,0.4s-0.7-0.1-0.7-0.4L432.5,293.2z"/>
<path class="st3" d="M458.5,292.8c0,0.9-1.6,0.7-2,0.7h-0.2c-2.7,0-3.9,5.2-3.9,8.1c0,3.3,0.2,5.7,2.7,7.6c1.2,0.9,3,0,3.4,0.7
	c0.6,0.9-0.5,1.2-1.4,1.2c-6.3-0.1-7.3-7.9-6-13c0.7-2.7,2.4-6.3,6-6.3C457.8,291.9,458.5,292.2,458.5,292.8"/>
<path class="st3" d="M462.9,300.8c0,7.6,1.5,9.6,3.5,9.6c2.7,0,2.7-6.6,2.7-8.2v-0.1c0-2-0.6-9.2-3.2-9.2c-2.1,0-3,4.3-3,5.6
	C462.9,299.3,462.9,300.1,462.9,300.8 M466.5,291.6c5,0.5,4.2,11.5,4,15c-0.2,1.9-1.2,5.2-4,5.2c-4.9,0-5.1-7.8-5.1-10.8
	C461.3,297.6,461.6,291.6,466.5,291.6"/>
<path class="st3" d="M474.9,312.2c0,0-0.4-13.3-0.4-15.1c0-0.5-0.3-4.5-0.4-4.9V292c0-0.2,0-0.3,0.2-0.5l0.5-0.1
	c0.5,0,0.7,0,0.9,0.5c0.2,1,0.1,1.6,0.2,2.6c0.1,5.3,0.2,10.6,0.5,16h0.2c1.2,0,2.3-0.4,3.5-0.4c0.4,0,0.9,0.1,0.9,0.6
	c0,0.3-0.2,0.5-0.6,0.6L474.9,312.2z"/>
<path class="st3" d="M483.6,300.8c0,7.6,1.5,9.6,3.5,9.6c2.7,0,2.7-6.6,2.7-8.2v-0.1c0-2-0.6-9.2-3.2-9.2c-2.1,0-3,4.3-3,5.6
	C483.6,299.3,483.6,300.1,483.6,300.8 M487.1,291.6c5,0.5,4.2,11.5,4,15c-0.2,1.9-1.2,5.2-4,5.2c-4.9,0-5.1-7.8-5.1-10.8
	C482,297.6,482.2,291.6,487.1,291.6"/>
<path class="st3" d="M497.6,300.2c2,0,2.7-3.4,2.7-4.6c0-1.2-0.6-2.8-2.2-2.8c-0.4,0-0.7,0.2-0.7,0.7c0,2.3-0.2,4.1-0.2,6.4
	C497.3,300.1,497.5,300.2,497.6,300.2 M495.5,310.2c0-5.8,0.2-11.7,0.4-17.5c0.1-1.2,0.5-1.2,1.6-1.2h0.3c2.5,0,4.2,1.6,4.2,3.8v0.3
	c0,1.9-0.5,4.1-2.4,5.3c0.1,0.1,0.8,0.8,0.9,1c1.2,1.5,0.9,5.2,1.1,7c0,0.2,0.2,1.3,0.2,1.5v0.2c0,0.4-0.4,0.5-0.8,0.5h0
	c-0.3,0-0.7,0-0.8-0.4c0-0.9-0.3-4.8-0.3-5.7c-0.1-1.3-0.4-3-2.1-3h-0.4c-0.1,0.2-0.2,1.3-0.2,1.5c0,0.2-0.2,6-0.2,8.2
	c0,0.5,0.1,1-0.6,1c-0.3,0-0.6-0.1-0.8-0.4V310.2z"/>
<path class="st3" d="M508.3,288.6l1.8-1.1l0.3-0.1c0.4,0,0.8,0.3,0.8,0.6c0,0.2,0,0.2-0.1,0.3l-1.4,0.8l-1,0.7
	c-0.2,0.1-0.2,0.1-0.4,0.1c-0.4,0-0.7-0.3-0.7-0.6C507.5,289.1,508,288.8,508.3,288.6 M506.1,293.6c0-0.5,0.5-0.9,1-0.9h4.4
	c0.2,0,0.7,0.4,0.7,0.5l0,0.1c0,0.5-0.7,0.8-1.2,0.8h-3.3l0.1,8.6l3-0.4h0.1c1.3,0,0.8,1.2-0.3,1.3l-2.8,0.4l-0.1,6.7
	c0.2,0,1.2,0,1.4,0c1.9,0,3.2-0.6,3.3,0.6c0.1,0.9-6.2,0.8-6.2,0.3L506.1,293.6z"/>
<path class="st3" d="M516.8,293.6c0-0.5,0.5-0.9,1-0.9h4.4c0.2,0,0.7,0.4,0.7,0.5l0,0.1c0,0.5-0.7,0.8-1.2,0.8h-3.3l0.1,8.6l3-0.4
	h0.1c1.3,0,0.8,1.2-0.3,1.3l-2.8,0.4l-0.1,6.7c0.2,0,1.2,0,1.4,0c1.9,0,3.2-0.6,3.3,0.6c0.1,0.9-6.2,0.8-6.2,0.3L516.8,293.6z"/>
<path class="st3" d="M66.1,290c0,0.6-0.5,1-1,1c-0.6,0-1-0.5-1-1c0-0.6,0.5-1,1-1C65.7,289,66.1,289.5,66.1,290"/>
<path class="st3" d="M165.9,290c0,0.6-0.5,1-1,1c-0.6,0-1-0.5-1-1c0-0.6,0.5-1,1-1C165.4,289,165.9,289.5,165.9,290"/>
<path class="st3" d="M183.4,290c0,0.6-0.5,1-1,1c-0.6,0-1-0.5-1-1c0-0.6,0.5-1,1-1C182.9,289,183.4,289.5,183.4,290"/>
<path class="st3" d="M333.6,290c0,0.6-0.5,1-1,1c-0.6,0-1-0.5-1-1c0-0.6,0.5-1,1-1C333.2,289,333.6,289.5,333.6,290"/>
</svg>
