<svg width="117" height="42" viewBox="0 0 117 42" fill="none" xmlns="http://www.w3.org/2000/svg"><path d="M14.013 15.132a5.394 5.394 0 0 0-1.906-1.553c-.772-.41-1.632-.615-2.578-.615-.723 0-1.37.133-1.943.398a4.3 4.3 0 0 0-1.458 1.084 4.76 4.76 0 0 0-.934 1.517 4.952 4.952 0 0 0-.336 1.807c0 .698.112 1.336.336 1.914a4.99 4.99 0 0 0 1.009 1.518c.448.41.96.734 1.532.975a5.05 5.05 0 0 0 1.906.361c.922 0 1.756-.192 2.504-.578.772-.409 1.395-.939 1.868-1.59v-5.238Zm4.858 11.38H14.2v-1.408a7.473 7.473 0 0 1-2.392 1.373 8.836 8.836 0 0 1-2.653.397 9.564 9.564 0 0 1-3.849-.795c-1.196-.53-2.192-1.252-2.99-2.168a9.247 9.247 0 0 1-1.718-2.745A9.567 9.567 0 0 1 0 17.77c0-1.301.224-2.505.673-3.613a9.38 9.38 0 0 1 1.905-2.89 8.993 8.993 0 0 1 2.84-1.915c1.072-.482 2.23-.723 3.475-.723 1.047 0 2.006.157 2.878.47a8.642 8.642 0 0 1 2.429 1.3V8.99h4.67v17.523Zm11.331-6.828 4.97-10.694h5.044l-8.333 17.523H28.52L20.187 8.99h5.045l4.97 10.694Zm26.742 4.046c-.872 1.012-1.98 1.795-3.325 2.35a10.95 10.95 0 0 1-4.11.794c-1.346 0-2.604-.217-3.775-.65a8.936 8.936 0 0 1-2.99-1.843 8.833 8.833 0 0 1-2.017-2.854c-.473-1.132-.71-2.385-.71-3.758 0-1.228.2-2.384.598-3.468a9.093 9.093 0 0 1 1.793-2.926 8.349 8.349 0 0 1 2.766-1.987c1.096-.506 2.316-.759 3.662-.759 1.245 0 2.391.24 3.438.723a8.293 8.293 0 0 1 2.69 1.95 8.36 8.36 0 0 1 1.794 2.819 9.445 9.445 0 0 1 .635 3.468c0 .506-.038.951-.112 1.337H44.725c.075.626.25 1.192.523 1.698.274.506.623.939 1.047 1.3.448.362.946.65 1.494.867.573.193 1.184.29 1.831.29 1.047 0 1.956-.217 2.728-.65.797-.459 1.408-.916 1.831-1.374l2.765 2.674Zm-4.521-8.237a3.137 3.137 0 0 0-.374-1.12 3.005 3.005 0 0 0-.747-1.011 3.287 3.287 0 0 0-1.084-.687 3.705 3.705 0 0 0-1.382-.253c-1.022 0-1.894.314-2.616.94-.722.626-1.146 1.337-1.27 2.131h7.473Zm23.659 7.443c-1.07 1.373-2.279 2.372-3.624 2.999-1.345.626-2.877.939-4.596.939-1.395 0-2.69-.229-3.887-.686-1.195-.482-2.23-1.133-3.101-1.951a9.854 9.854 0 0 1-2.018-2.89 9.009 9.009 0 0 1-.71-3.578c0-1.276.25-2.468.747-3.576a8.97 8.97 0 0 1 2.056-2.89 9.148 9.148 0 0 1 3.064-1.951c1.195-.482 2.49-.723 3.886-.723 1.57 0 3.014.325 4.335.975 1.345.627 2.441 1.47 3.288 2.53l-3.438 2.926a5.796 5.796 0 0 0-1.83-1.518c-.698-.385-1.483-.578-2.355-.578a4.74 4.74 0 0 0-1.943.398 4.83 4.83 0 0 0-1.57 1.011c-.423.434-.76.94-1.008 1.518a4.696 4.696 0 0 0-.374 1.879c0 .698.124 1.336.373 1.914.25.578.586 1.084 1.01 1.518.448.41.971.734 1.569.975a5.65 5.65 0 0 0 2.055.361c.996 0 1.868-.24 2.616-.722.747-.482 1.32-1.012 1.719-1.59l3.736 2.71Zm3.178.794c0-.89.312-1.637.934-2.24.623-.625 1.395-.939 2.317-.939.922 0 1.694.314 2.317.94.648.602.971 1.349.971 2.24 0 .89-.323 1.638-.971 2.24-.623.602-1.395.903-2.317.903-.922 0-1.694-.301-2.317-.903-.622-.602-.934-1.35-.934-2.24Zm23.168-18.895a4.874 4.874 0 0 0-.71-.108 4.348 4.348 0 0 0-.747-.072c-1.22 0-2.13.337-2.728 1.011-.2.265-.361.59-.486.976-.124.385-.187.987-.187 1.806v.542h5.605v3.974H97.57v13.549h-4.857V12.964h-4.671V8.99h4.67v-.722c0-1.421.162-2.578.486-3.469.324-.89.81-1.638 1.458-2.24.647-.602 1.432-1.096 2.354-1.48C97.956.692 99.053.5 100.298.5c.498 0 .972.024 1.42.072.473.048.959.133 1.457.253l-.747 4.01Zm14.011 8.31a4.106 4.106 0 0 0-.747-.108 6.848 6.848 0 0 0-1.009-.073 4.43 4.43 0 0 0-1.494.253c-.474.169-.91.386-1.308.65a5.246 5.246 0 0 0-.972.795 4.3 4.3 0 0 0-.635.831v11.02h-4.858V8.99h4.671v1.77c.548-.65 1.283-1.168 2.205-1.553.921-.385 1.943-.578 3.064-.578.349 0 .635.012.859.036.249.024.511.06.785.108l-.561 4.372Z" fill="#E20080"/><path d="M2.867 39.338 0 32.096h.858l2.51 6.476 2.522-6.477h.826L3.83 39.339h-.962Zm3.938-2.525c0-.372.063-.717.188-1.034a2.64 2.64 0 0 1 .513-.828c.223-.235.488-.417.795-.548a2.48 2.48 0 0 1 .983-.197 2.43 2.43 0 0 1 2.302 1.573c.125.317.188.662.188 1.034 0 .373-.066.721-.199 1.045a2.52 2.52 0 0 1-.523.838c-.216.228-.477.41-.784.549a2.477 2.477 0 0 1-.984.196c-.348 0-.676-.065-.983-.197a2.532 2.532 0 0 1-.785-.558 2.8 2.8 0 0 1-.523-.828 2.869 2.869 0 0 1-.188-1.045Zm2.48 1.956c.494 0 .906-.183 1.234-.549.335-.372.502-.838.502-1.396 0-.56-.168-1.025-.502-1.397a1.575 1.575 0 0 0-1.235-.559c-.495 0-.906.186-1.234.559-.328.372-.492.838-.492 1.397 0 .558.164 1.024.492 1.396.328.366.74.549 1.234.549Zm4.109-.569v-3.29h-1.057v-.621h1.057v-1.387l.763-.175v1.562h1.465v.62h-1.465v3.094c0 .269.056.462.168.58.118.117.31.175.575.175.133 0 .251-.01.356-.03.104-.022.227-.056.366-.104v.672c-.14.048-.286.083-.44.104a3.47 3.47 0 0 1-.45.03c-.439 0-.773-.103-1.003-.31-.224-.213-.335-.52-.335-.92Zm3.346 1.138v-5.05h.765v1.025c.132-.352.32-.624.564-.817.252-.2.537-.3.858-.3.09 0 .175.007.251.02a.922.922 0 0 1 .23.052v.683a1.58 1.58 0 0 0-.271-.062 1.332 1.332 0 0 0-1.088.238c-.23.18-.412.43-.544.755v3.456h-.764Zm7.568-.58a3.23 3.23 0 0 1-.91.507c-.314.11-.649.166-1.005.166a2.58 2.58 0 0 1-1.004-.197 2.628 2.628 0 0 1-.805-.559 2.693 2.693 0 0 1-.534-.827 2.84 2.84 0 0 1-.188-1.035c0-.365.059-.707.178-1.024.125-.324.296-.6.512-.828.216-.234.47-.417.764-.548.293-.138.61-.207.952-.207.335 0 .645.066.931.197a2.351 2.351 0 0 1 1.234 1.345c.119.31.178.644.178 1.003v.228h-4.007c.035.51.227.938.576 1.283.349.338.764.507 1.245.507.265 0 .52-.045.764-.135.25-.096.463-.224.638-.383l.48.507Zm-2.05-3.9c-.42 0-.778.148-1.078.445-.3.296-.485.676-.555 1.138h3.233a1.851 1.851 0 0 0-.534-1.128 1.428 1.428 0 0 0-1.067-.455Zm6.099 6.642v-7.211h.753v.724a1.91 1.91 0 0 1 .712-.58c.286-.137.6-.206.941-.206.328 0 .635.069.92.207.294.13.545.314.754.548.21.228.373.5.492.817.125.318.188.656.188 1.014 0 .366-.063.707-.188 1.024a2.495 2.495 0 0 1-.502.828c-.216.228-.471.41-.764.549a2.28 2.28 0 0 1-.942.196 2.3 2.3 0 0 1-.9-.176 2.018 2.018 0 0 1-.7-.528V41.5h-.764Zm2.218-6.611c-.3 0-.579.062-.837.186a1.573 1.573 0 0 0-.617.507v2.473c.167.22.376.393.627.517.258.124.534.186.827.186.51 0 .934-.183 1.276-.548.342-.373.513-.835.513-1.386 0-.552-.171-1.01-.513-1.376a1.661 1.661 0 0 0-1.276-.56Zm4.645-3.104v7.553h-.764V31.94l.764-.155Zm3.145 7.645c-.544 0-.99-.14-1.339-.423a1.398 1.398 0 0 1-.512-1.118c0-.448.174-.81.523-1.086.355-.276.82-.414 1.391-.414.293 0 .569.034.827.103.265.063.509.16.732.29v-.693c0-.414-.112-.724-.335-.931-.223-.214-.55-.32-.983-.32-.237 0-.481.034-.732.103a4.619 4.619 0 0 0-.816.33l-.283-.579a5.21 5.21 0 0 1 .994-.362 3.63 3.63 0 0 1 .931-.124c.628 0 1.112.155 1.454.466.349.303.523.741.523 1.314v3.352h-.753v-.59c-.223.227-.47.4-.743.517-.272.11-.565.166-.879.166Zm-1.119-1.562c0 .297.119.535.356.714.237.18.544.27.92.27a2.074 2.074 0 0 0 1.465-.58V37.3a2.52 2.52 0 0 0-.67-.27 2.973 2.973 0 0 0-.774-.093c-.39 0-.704.087-.941.259a.796.796 0 0 0-.356.672Zm5.5.332v-3.29h-1.057v-.621h1.057v-1.387l.764-.175v1.562h1.464v.62H43.51v3.094c0 .269.056.462.167.58.119.117.31.175.575.175a1.9 1.9 0 0 0 .356-.03c.105-.022.227-.056.366-.104v.672c-.14.048-.286.083-.439.104a3.47 3.47 0 0 1-.45.03c-.44 0-.774-.103-1.004-.31-.223-.213-.335-.52-.335-.92Zm7.441.558a3.23 3.23 0 0 1-.91.507c-.315.11-.65.166-1.005.166a2.58 2.58 0 0 1-1.004-.197 2.628 2.628 0 0 1-.806-.559 2.693 2.693 0 0 1-.533-.827 2.84 2.84 0 0 1-.189-1.035c0-.365.06-.707.178-1.024.126-.324.297-.6.513-.828a2.31 2.31 0 0 1 .764-.548c.292-.138.61-.207.952-.207.334 0 .645.066.93.197a2.354 2.354 0 0 1 1.235 1.345c.119.31.178.644.178 1.003v.228h-4.007c.035.51.227.938.576 1.283.348.338.763.507 1.244.507.266 0 .52-.045.764-.135.251-.096.464-.224.638-.383l.482.507Zm-2.051-3.9c-.418 0-.778.148-1.078.445-.3.296-.484.676-.554 1.138h3.233a1.851 1.851 0 0 0-.534-1.128 1.428 1.428 0 0 0-1.067-.455Zm3.013-.569h1.14v-1.107c0-.497.133-.88.398-1.149s.642-.403 1.13-.403c.14 0 .265.01.376.03.119.015.224.035.314.063v.683a3.144 3.144 0 0 0-.314-.062 1.365 1.365 0 0 0-.303-.031c-.293 0-.506.072-.638.217-.133.145-.199.365-.199.662v1.097h1.454v.62h-1.454v4.429h-.764V34.91h-1.14v-.621Zm3.899 2.524c0-.372.062-.717.188-1.034.126-.318.296-.594.513-.828a2.37 2.37 0 0 1 .795-.548c.306-.131.634-.197.983-.197a2.43 2.43 0 0 1 2.302 1.573c.125.317.188.662.188 1.034 0 .373-.066.721-.199 1.045a2.51 2.51 0 0 1-.523.838c-.216.228-.478.41-.785.549a2.477 2.477 0 0 1-.983.196c-.349 0-.677-.065-.983-.197a2.532 2.532 0 0 1-.785-.558 2.8 2.8 0 0 1-.523-.828 2.87 2.87 0 0 1-.188-1.045Zm2.48 1.956c.494 0 .906-.183 1.233-.549.335-.372.503-.838.503-1.396 0-.56-.168-1.025-.503-1.397a1.575 1.575 0 0 0-1.234-.559c-.495 0-.907.186-1.234.559-.328.372-.492.838-.492 1.397 0 .558.164 1.024.492 1.396.327.366.739.549 1.234.549Zm3.829.569v-5.05h.763v1.025c.133-.352.321-.624.565-.817.251-.2.537-.3.858-.3.09 0 .175.007.251.02a.921.921 0 0 1 .23.052v.683a1.58 1.58 0 0 0-.272-.062 1.332 1.332 0 0 0-1.088.238 1.79 1.79 0 0 0-.544.755v3.456h-.763Zm3.678 0v-5.05h.763v.787a2.07 2.07 0 0 1 .67-.652c.251-.145.533-.217.847-.217.356 0 .67.09.942.269.279.18.488.417.628.714a2.04 2.04 0 0 1 .721-.735c.286-.165.614-.248.984-.248.509 0 .924.176 1.245.528.328.344.492.793.492 1.345v3.259h-.764v-3.073c0-.435-.115-.78-.346-1.035-.223-.262-.526-.393-.91-.393-.265 0-.505.066-.722.197a1.615 1.615 0 0 0-.554.6 2.478 2.478 0 0 1 .042.445v3.259h-.764v-3.073c0-.435-.115-.78-.345-1.035-.23-.262-.537-.393-.92-.393-.259 0-.492.062-.702.186-.209.124-.39.31-.544.56v3.755h-.763Zm13.053-.58a3.23 3.23 0 0 1-.91.507c-.314.11-.649.166-1.004.166-.356 0-.69-.066-1.005-.197a2.627 2.627 0 0 1-.805-.559 2.692 2.692 0 0 1-.534-.827 2.84 2.84 0 0 1-.188-1.035c0-.365.06-.707.178-1.024.125-.324.296-.6.512-.828.217-.234.471-.417.764-.548.293-.138.61-.207.952-.207.335 0 .645.066.931.197a2.351 2.351 0 0 1 1.234 1.345c.12.31.178.644.178 1.003v.228h-4.006c.034.51.226.938.575 1.283.349.338.764.507 1.245.507.265 0 .52-.045.764-.135.25-.096.464-.224.638-.383l.481.507Zm-2.05-3.9c-.419 0-.778.148-1.078.445-.3.296-.485.676-.554 1.138h3.232a1.851 1.851 0 0 0-.533-1.128 1.428 1.428 0 0 0-1.067-.455Zm10.315 3.9a3.23 3.23 0 0 1-.91.507c-.314.11-.648.166-1.004.166a2.58 2.58 0 0 1-1.004-.197 2.628 2.628 0 0 1-.806-.559 2.691 2.691 0 0 1-.534-.827 2.838 2.838 0 0 1-.188-1.035c0-.365.06-.707.178-1.024.125-.324.296-.6.513-.828.216-.234.47-.417.763-.548.293-.138.61-.207.952-.207.335 0 .645.066.931.197a2.353 2.353 0 0 1 1.234 1.345c.12.31.179.644.179 1.003v.228H82.65c.035.51.226.938.575 1.283.349.338.764.507 1.245.507.265 0 .52-.045.764-.135.251-.096.464-.224.638-.383l.481.507Zm-2.05-3.9c-.419 0-.778.148-1.078.445-.3.296-.484.676-.554 1.138h3.232a1.852 1.852 0 0 0-.533-1.128 1.428 1.428 0 0 0-1.067-.455Zm3.532 1.242h3.483v.651h-3.483V36.1Zm4.415 2.586.408-.497c.3.221.58.383.837.486.265.097.534.145.806.145.37 0 .676-.086.92-.258.245-.173.367-.39.367-.652a.589.589 0 0 0-.22-.486c-.146-.118-.38-.207-.701-.27l-.837-.144c-.495-.09-.861-.242-1.098-.455-.23-.214-.346-.504-.346-.87 0-.434.171-.79.513-1.065.349-.276.792-.414 1.329-.414.348 0 .68.052.994.155.313.104.63.262.952.476l-.377.528a2.888 2.888 0 0 0-.795-.404 2.498 2.498 0 0 0-.806-.134c-.335 0-.603.072-.805.217a.688.688 0 0 0-.304.59c0 .207.063.365.189.476.132.11.362.193.69.248l.858.155c.51.09.882.245 1.12.466.243.22.365.517.365.89 0 .434-.191.803-.575 1.106-.376.304-.847.456-1.412.456a3.5 3.5 0 0 1-1.162-.186 2.58 2.58 0 0 1-.91-.56Zm6.853.744c-.544 0-.99-.14-1.339-.423a1.398 1.398 0 0 1-.513-1.118c0-.448.175-.81.523-1.086.356-.276.82-.414 1.392-.414.293 0 .568.034.826.103.265.063.51.16.733.29v-.693c0-.414-.112-.724-.335-.931-.223-.214-.551-.32-.984-.32-.237 0-.48.034-.732.103a4.68 4.68 0 0 0-.816.33l-.282-.579c.348-.165.68-.286.994-.362.313-.083.624-.124.93-.124.628 0 1.113.155 1.455.466.349.303.523.741.523 1.314v3.352h-.753v-.59a2.33 2.33 0 0 1-.743.517c-.272.11-.565.166-.879.166Zm-1.12-1.562c0 .297.12.535.356.714.238.18.544.27.921.27a2.074 2.074 0 0 0 1.465-.58V37.3a2.535 2.535 0 0 0-.67-.27 2.971 2.971 0 0 0-.774-.093c-.39 0-.704.087-.942.259a.796.796 0 0 0-.355.672Zm5.047 1.47v-5.05h.764v.818a2.02 2.02 0 0 1 .701-.672c.272-.152.579-.228.92-.228.544 0 .987.172 1.329.517.349.345.523.794.523 1.345v3.27h-.764v-3.052c0-.442-.125-.794-.376-1.056-.244-.262-.576-.393-.994-.393-.279 0-.534.066-.764.197-.23.13-.422.324-.575.58v3.724h-.764Zm6.226-1.138v-3.29h-1.057v-.621h1.057v-1.387l.764-.175v1.562h1.464v.62h-1.464v3.094c0 .269.056.462.167.58.119.117.311.175.576.175.132 0 .251-.01.355-.03.105-.022.227-.056.366-.104v.672a2.267 2.267 0 0 1-.439.104 3.47 3.47 0 0 1-.45.03c-.439 0-.774-.103-1.004-.31-.223-.213-.335-.52-.335-.92Zm7.441.558a3.233 3.233 0 0 1-.911.507c-.313.11-.648.166-1.004.166s-.69-.066-1.004-.197a2.626 2.626 0 0 1-.806-.559 2.685 2.685 0 0 1-.533-.827 2.83 2.83 0 0 1-.189-1.035c0-.365.06-.707.178-1.024.126-.324.297-.6.513-.828a2.31 2.31 0 0 1 .764-.548c.292-.138.61-.207.952-.207.334 0 .645.066.931.197.286.13.533.31.742.538.21.22.374.49.492.807.119.31.178.645.178 1.003v.228h-4.007c.035.51.227.938.576 1.283.348.338.763.507 1.244.507.266 0 .52-.045.764-.135a2 2 0 0 0 .638-.383l.482.507Zm-2.051-3.9c-.418 0-.778.148-1.077.445-.3.296-.485.676-.555 1.138h3.233a1.852 1.852 0 0 0-.534-1.128 1.427 1.427 0 0 0-1.067-.455Zm.67-2.825h1.035l-1.506 1.263h-.701l1.172-1.263Z" fill="#000"/></svg>