<svg width="166" height="41" viewBox="0 0 166 41" fill="none" xmlns="http://www.w3.org/2000/svg">
<path d="M118.554 26.4691C118.553 26.7847 118.428 27.0871 118.204 27.3103C117.981 27.5335 117.679 27.6593 117.363 27.6602C117.207 27.6597 117.052 27.6285 116.908 27.5682C116.763 27.5079 116.632 27.4198 116.522 27.3089C116.412 27.198 116.324 27.0664 116.265 26.9217C116.205 26.7771 116.175 26.6221 116.175 26.4657C116.173 26.3099 116.202 26.1552 116.26 26.0107C116.319 25.8661 116.405 25.7347 116.515 25.6241C116.626 25.515 116.757 25.4288 116.902 25.3706C117.046 25.3124 117.201 25.2832 117.356 25.2847C117.672 25.2826 117.975 25.4045 118.201 25.6241C118.421 25.8486 118.543 26.1513 118.541 26.4657L118.554 26.4691ZM110.688 26.4657C110.686 26.7816 110.56 27.084 110.336 27.3071C110.112 27.5302 109.81 27.6559 109.494 27.6568C109.178 27.655 108.875 27.5285 108.652 27.3047C108.429 27.081 108.303 26.7782 108.303 26.4623C108.304 26.1469 108.43 25.845 108.653 25.622C108.876 25.399 109.178 25.2729 109.494 25.2712C109.652 25.2698 109.809 25.2998 109.955 25.3594C110.102 25.419 110.235 25.507 110.347 25.6184C110.46 25.7298 110.549 25.8623 110.61 26.0083C110.67 26.1543 110.702 26.3109 110.702 26.4691L110.688 26.4657ZM125.144 24.2294C125 24.2287 124.858 24.1939 124.73 24.1277C124.602 24.0615 124.491 23.9659 124.407 23.8487C124.323 23.7315 124.268 23.596 124.246 23.4533C124.224 23.3107 124.237 23.165 124.282 23.0281L126.997 14.9821C127.035 14.8686 127.095 14.7637 127.174 14.6733C127.252 14.583 127.348 14.5091 127.455 14.4558C127.562 14.4025 127.679 14.3709 127.798 14.3628C127.918 14.3548 128.038 14.3703 128.151 14.4086C128.379 14.4867 128.567 14.6518 128.674 14.868C128.781 15.0841 128.798 15.3338 128.721 15.5624L126.006 23.6084C125.943 23.7857 125.826 23.939 125.671 24.0471C125.517 24.1553 125.333 24.213 125.144 24.2124V24.2294ZM164.79 15.0059H163.121L163.413 14.0591C163.448 13.9448 163.461 13.8246 163.45 13.7053C163.439 13.5861 163.405 13.4702 163.349 13.3642C163.293 13.2583 163.217 13.1644 163.125 13.088C163.033 13.0116 162.926 12.9541 162.812 12.9189C162.698 12.8838 162.578 12.8716 162.459 12.883C162.34 12.8943 162.224 12.9291 162.118 12.9852C162.013 13.0413 161.919 13.1177 161.843 13.2099C161.767 13.3022 161.71 13.4086 161.675 13.5229L161.217 14.9991H160.216C160.036 15 159.861 15.054 159.712 15.1541C159.563 15.2543 159.446 15.3962 159.378 15.5621C159.309 15.7281 159.29 15.9106 159.325 16.0869C159.359 16.2633 159.445 16.4255 159.571 16.5533C159.743 16.7227 159.974 16.8188 160.216 16.8214H160.654L159.419 20.8291C159.299 21.2211 159.274 21.636 159.346 22.0396C159.418 22.4432 159.584 22.8239 159.833 23.1502C160.1 23.5057 160.446 23.7941 160.845 23.9926C161.243 24.1911 161.682 24.2942 162.127 24.2938H162.748C162.98 24.2797 163.197 24.1775 163.357 24.0082C163.516 23.8389 163.605 23.6152 163.605 23.3827C163.605 23.1502 163.516 22.9265 163.357 22.7572C163.197 22.5879 162.98 22.4857 162.748 22.4715H162.13C161.966 22.4756 161.804 22.4401 161.657 22.368C161.51 22.2959 161.382 22.1894 161.285 22.0575C161.209 21.9586 161.158 21.8428 161.136 21.72C161.114 21.5971 161.122 21.4708 161.159 21.3517L162.547 16.8214H164.773C165.005 16.8072 165.223 16.7051 165.383 16.5357C165.542 16.3664 165.631 16.1427 165.631 15.9102C165.631 15.6778 165.542 15.4541 165.383 15.2847C165.223 15.1154 165.005 15.0133 164.773 14.9991L164.79 15.0059ZM142.254 24.2497H140.629C140.102 24.2497 139.582 24.1271 139.111 23.8915C138.64 23.6559 138.23 23.3138 137.914 22.8923C137.629 22.5081 137.438 22.0623 137.356 21.5907C137.275 21.1192 137.306 20.6351 137.446 20.1775L138.243 17.5985C138.559 16.6526 139.167 15.8314 139.979 15.2532C140.791 14.675 141.766 14.3698 142.763 14.3815H144.066C144.498 14.3808 144.923 14.4808 145.309 14.6734C145.695 14.8661 146.031 15.1461 146.289 15.4912C146.528 15.8092 146.687 16.1794 146.754 16.5711C146.822 16.9629 146.795 17.3651 146.676 17.7444C146.462 18.3914 146.048 18.9537 145.493 19.3501C144.939 19.7466 144.273 19.9567 143.591 19.9502H139.428L139.19 20.7171C139.131 20.9037 139.119 21.1018 139.153 21.2944C139.187 21.487 139.267 21.6685 139.387 21.8234C139.532 22.0159 139.72 22.1713 139.936 22.2769C140.153 22.3825 140.391 22.4352 140.632 22.4308H142.254C142.518 22.4279 142.779 22.372 143.021 22.2665C143.263 22.161 143.481 22.008 143.663 21.8166C143.78 21.6797 143.935 21.5805 144.108 21.5318C144.281 21.4831 144.465 21.487 144.637 21.543C144.808 21.5989 144.959 21.7045 145.07 21.8463C145.181 21.988 145.247 22.1596 145.261 22.3392C145.273 22.4612 145.26 22.5844 145.223 22.7012C145.186 22.8179 145.125 22.9257 145.044 23.0179C144.689 23.4047 144.258 23.7138 143.778 23.9258C143.298 24.1378 142.779 24.2481 142.254 24.2497ZM139.991 18.1211H143.595C143.89 18.1329 144.18 18.05 144.425 17.8845C144.669 17.719 144.854 17.4796 144.952 17.2015C144.985 17.0938 144.992 16.9799 144.973 16.869C144.953 16.7581 144.908 16.6534 144.84 16.5635C144.751 16.4468 144.636 16.3527 144.504 16.289C144.372 16.2253 144.227 16.1938 144.08 16.197H142.78C142.171 16.1808 141.573 16.3584 141.072 16.7043C140.571 17.0501 140.192 17.5462 139.991 18.1211ZM152.611 24.2701H151.349C150.831 24.2706 150.32 24.1507 149.857 23.9198C149.393 23.689 148.99 23.3535 148.678 22.9398C148.395 22.56 148.205 22.1185 148.125 21.6514C148.045 21.1843 148.076 20.7048 148.217 20.2522L149.109 17.361C149.399 16.4911 149.958 15.7358 150.705 15.204C151.453 14.6722 152.349 14.3913 153.266 14.4018H154.203C154.662 14.3845 155.12 14.4664 155.546 14.6421C155.971 14.8178 156.353 15.0831 156.666 15.4199C156.901 15.6984 157.072 16.0251 157.167 16.3769C157.262 16.7287 157.279 17.097 157.216 17.456C157.178 17.694 157.047 17.907 156.851 18.0483C156.656 18.1896 156.412 18.2475 156.174 18.2093C156.056 18.1915 155.943 18.1502 155.841 18.0878C155.739 18.0255 155.65 17.9433 155.581 17.8462C155.438 17.6505 155.38 17.4064 155.418 17.1675C155.439 17.0676 155.438 16.9642 155.414 16.8649C155.39 16.7656 155.343 16.673 155.278 16.594C155.136 16.4576 154.966 16.3524 154.78 16.2852C154.594 16.218 154.396 16.1903 154.199 16.2038H153.266C152.738 16.1917 152.219 16.3474 151.785 16.6487C151.351 16.9499 151.024 17.3811 150.85 17.8802L149.958 20.7748C149.901 20.9551 149.888 21.1465 149.921 21.3326C149.954 21.5188 150.032 21.6942 150.148 21.8437C150.285 22.033 150.466 22.1865 150.675 22.2916C150.884 22.3967 151.115 22.4502 151.349 22.4478H152.608C153.609 22.4478 154.25 22.0066 154.508 21.1413C154.542 21.0268 154.599 20.9201 154.674 20.8273C154.749 20.7345 154.842 20.6575 154.947 20.6006C155.052 20.5438 155.168 20.5081 155.286 20.4958C155.405 20.4835 155.525 20.4947 155.64 20.5288C155.754 20.5629 155.861 20.6192 155.954 20.6945C156.047 20.7698 156.124 20.8627 156.181 20.9678C156.237 21.0729 156.273 21.1881 156.285 21.307C156.298 21.4258 156.287 21.546 156.252 21.6605C155.76 23.2962 154.403 24.2701 152.611 24.2701ZM130.778 24.2226C130.696 24.2227 130.615 24.2124 130.537 24.192C130.42 24.1597 130.312 24.1043 130.217 24.0291C130.123 23.9539 130.044 23.8604 129.987 23.7543C129.928 23.6525 129.891 23.54 129.876 23.4235C129.861 23.3069 129.87 23.1887 129.902 23.0756L131.259 18.189C131.417 17.6235 131.688 17.0964 132.058 16.6405C132.427 16.1846 132.887 15.8095 133.408 15.5387L135.467 14.4697C135.574 14.4065 135.693 14.3658 135.816 14.3501C135.939 14.3344 136.064 14.3439 136.184 14.3782C136.303 14.4125 136.414 14.4707 136.51 14.5494C136.606 14.6281 136.685 14.7256 136.742 14.8358C136.8 14.9461 136.834 15.0669 136.842 15.1907C136.851 15.3146 136.835 15.4389 136.794 15.5562C136.753 15.6734 136.688 15.7811 136.605 15.8726C136.521 15.9641 136.419 16.0376 136.306 16.0884L134.246 17.154C133.95 17.3093 133.689 17.5233 133.479 17.783C133.269 18.0426 133.114 18.3424 133.024 18.6641L131.667 23.5541C131.612 23.7476 131.496 23.9179 131.335 24.0387C131.175 24.1595 130.979 24.2241 130.778 24.2226ZM130.048 11.945C130.048 12.0999 130.017 12.2533 129.958 12.3964C129.899 12.5395 129.812 12.6694 129.702 12.7788C129.592 12.8882 129.462 12.9749 129.319 13.0338C129.175 13.0928 129.022 13.123 128.867 13.1225C128.712 13.1221 128.558 13.0911 128.415 13.0313C128.272 12.9716 128.142 12.8842 128.033 12.7742C127.924 12.6642 127.837 12.5338 127.778 12.3904C127.719 12.2469 127.689 12.0933 127.69 11.9382C127.691 11.6258 127.816 11.3269 128.038 11.1063C128.259 10.8858 128.558 10.7615 128.87 10.7606C129.026 10.7611 129.179 10.7921 129.322 10.8518C129.465 10.9116 129.595 10.999 129.704 11.1089C129.814 11.2189 129.9 11.3493 129.959 11.4928C130.018 11.6362 130.048 11.7899 130.048 11.945ZM118.68 24.0631L108.191 24.0393C107.793 24.0371 107.407 23.9068 107.09 23.6678C106.773 23.4287 106.541 23.0937 106.429 22.7125L104.074 14.5681C103.995 14.2908 103.981 13.9988 104.034 13.7152C104.087 13.4316 104.204 13.1641 104.378 12.9338C104.552 12.7035 104.777 12.5167 105.035 12.3881C105.293 12.2595 105.578 12.1926 105.866 12.1927H121.924L123.756 6.92941C123.794 6.80098 123.857 6.68153 123.943 6.57833C124.028 6.47512 124.133 6.39031 124.252 6.32905C124.371 6.26778 124.501 6.23133 124.635 6.22193C124.768 6.21252 124.902 6.23034 125.029 6.27431C125.155 6.31829 125.271 6.38749 125.37 6.47773C125.469 6.56796 125.548 6.67735 125.604 6.79923C125.659 6.92112 125.689 7.05296 125.691 7.18676C125.694 7.32056 125.67 7.45352 125.619 7.57756L120.261 22.9398C120.147 23.2679 119.933 23.5522 119.649 23.7534C119.366 23.9546 119.027 24.0628 118.68 24.0631ZM108.292 22.0575L118.473 22.0813L121.235 14.1507H106.005L108.292 22.0575ZM118.524 17.948C118.525 17.8184 118.5 17.6898 118.451 17.5699C118.402 17.4499 118.329 17.3408 118.238 17.249C118.146 17.1571 118.037 17.0844 117.918 17.0348C117.798 16.9853 117.669 16.9601 117.54 16.9605H109.769C109.517 16.9753 109.281 17.0856 109.108 17.2688C108.935 17.4521 108.839 17.6944 108.839 17.9463C108.839 18.1982 108.935 18.4406 109.108 18.6238C109.281 18.8071 109.517 18.9174 109.769 18.9321H117.54C117.798 18.9286 118.045 18.8233 118.227 18.6391C118.408 18.455 118.51 18.2067 118.51 17.948H118.524Z" fill="#00D8B4"/>
<path d="M82.6071 35.4211C82.6071 38.5024 79.2475 41 75.1075 41C70.9675 41 67.6079 38.5024 67.6079 35.4211C67.6079 32.3399 70.9675 29.8389 75.1075 29.8389C79.2475 29.8389 82.6071 32.3399 82.6071 35.4211ZM78.7724 34.1995H76.3257V32.0039C76.3262 31.9521 76.3163 31.9007 76.2967 31.8527C76.2771 31.8048 76.2481 31.7612 76.2115 31.7245C76.1748 31.6879 76.1312 31.6589 76.0833 31.6393C76.0353 31.6197 75.9839 31.6098 75.9321 31.6103H74.2829C74.2311 31.6098 74.1797 31.6197 74.1317 31.6393C74.0837 31.6589 74.0402 31.6879 74.0035 31.7245C73.9669 31.7612 73.9379 31.8048 73.9183 31.8527C73.8987 31.9007 73.8888 31.9521 73.8892 32.0039V34.1995H71.4425C71.3381 34.1995 71.238 34.241 71.1642 34.3148C71.0904 34.3886 71.0489 34.4887 71.0489 34.5931V36.2457C71.0489 36.3501 71.0904 36.4503 71.1642 36.5241C71.238 36.5979 71.3381 36.6394 71.4425 36.6394H73.8892V38.8384C73.8888 38.8902 73.8987 38.9416 73.9183 38.9895C73.9379 39.0375 73.9669 39.0811 74.0035 39.1177C74.0402 39.1544 74.0837 39.1833 74.1317 39.203C74.1797 39.2226 74.2311 39.2325 74.2829 39.232H75.9321C75.9839 39.2325 76.0353 39.2226 76.0833 39.203C76.1312 39.1833 76.1748 39.1544 76.2115 39.1177C76.2481 39.0811 76.2771 39.0375 76.2967 38.9895C76.3163 38.9416 76.3262 38.8902 76.3257 38.8384V36.6496H78.7724C78.8768 36.6496 78.977 36.6081 79.0508 36.5343C79.1246 36.4605 79.1661 36.3603 79.1661 36.2559V34.6033C79.1661 34.4989 79.1246 34.3988 79.0508 34.325C78.977 34.2511 78.8768 34.2097 78.7724 34.2097" fill="#001688"/>
<path d="M48.1331 0C21.8608 0 0 7.92038 0 19.8892C0 31.858 21.8608 39.7783 48.1331 39.7783C54.5264 39.7997 60.9106 39.2957 67.2214 38.2716C66.6963 37.4131 66.4159 36.4275 66.4104 35.4211C66.4104 31.6883 70.3129 28.6342 75.1078 28.6342C79.1393 28.6342 82.5362 30.7822 83.5169 33.6871C91.366 30.2529 96.1949 25.5156 96.1949 19.8824C96.1949 7.92038 74.4088 0 48.1331 0Z" fill="#001688"/>
<path d="M33.9684 20.1606C34.5511 19.9674 35.0581 19.5955 35.4175 19.0979C35.7768 18.6002 35.9704 18.002 35.9705 17.3881C35.971 17.005 35.8959 16.6256 35.7496 16.2716C35.6033 15.9175 35.3887 15.5958 35.118 15.3247C34.8472 15.0537 34.5257 14.8386 34.1718 14.6919C33.818 14.5452 33.4386 14.4697 33.0555 14.4697H28.8883C28.7659 14.4697 28.6486 14.5184 28.562 14.6049C28.4755 14.6915 28.4268 14.8088 28.4268 14.9312V23.5948C28.4268 23.7172 28.4755 23.8346 28.562 23.9211C28.6486 24.0077 28.7659 24.0563 28.8883 24.0563H30.2457C30.3681 24.0563 30.4855 24.0077 30.5721 23.9211C30.6586 23.8346 30.7073 23.7172 30.7073 23.5948V20.3065H31.7253L33.6765 23.4319C33.7961 23.6229 33.9622 23.7803 34.1592 23.8896C34.3563 23.9988 34.5779 24.0562 34.8032 24.0563H36.2556C36.2985 24.0562 36.3406 24.0442 36.3772 24.0218C36.4138 23.9994 36.4435 23.9673 36.4631 23.9292C36.4827 23.891 36.4915 23.8481 36.4884 23.8053C36.4853 23.7625 36.4705 23.7214 36.4456 23.6864L33.9684 20.1606ZM30.7073 16.3904H32.7433C33.0079 16.3904 33.2617 16.4955 33.4488 16.6827C33.6359 16.8698 33.741 17.1235 33.741 17.3881C33.741 17.6527 33.6359 17.9065 33.4488 18.0936C33.2617 18.2807 33.0079 18.3858 32.7433 18.3858H30.7073V16.3904ZM56.1821 14.9312V23.5982C56.1812 23.7194 56.1326 23.8354 56.0469 23.9211C55.9612 24.0069 55.8452 24.0554 55.724 24.0563H54.3666C54.2451 24.0563 54.1286 24.008 54.0426 23.9221C53.9567 23.8362 53.9085 23.7197 53.9085 23.5982V17.2727L53.7591 17.2422L51.8045 21.8336C51.7297 22.0097 51.6035 22.1593 51.4425 22.2627C51.2816 22.3662 51.0932 22.4189 50.9018 22.4139H50.1485C49.9608 22.4139 49.7772 22.359 49.6204 22.2559C49.4636 22.1527 49.3405 22.0059 49.2662 21.8336L47.3251 17.2388L47.1792 17.2693V23.5982C47.1783 23.7194 47.1298 23.8354 47.044 23.9211C46.9583 24.0069 46.8423 24.0554 46.7211 24.0563H45.3637C45.2422 24.0563 45.1257 24.008 45.0397 23.9221C44.9538 23.8362 44.9056 23.7197 44.9056 23.5982V14.9312C44.9056 14.8097 44.9538 14.6932 45.0397 14.6073C45.1257 14.5214 45.2422 14.4731 45.3637 14.4731H47.2301C47.4677 14.4737 47.6999 14.5446 47.8973 14.6769C48.0948 14.8091 48.2487 14.9968 48.3398 15.2163L50.5218 20.6153H50.5625L52.7004 15.2231C52.7906 15.0018 52.9446 14.8123 53.1428 14.6787C53.341 14.5452 53.5744 14.4736 53.8134 14.4731H55.7206C55.8424 14.4731 55.9593 14.5213 56.0457 14.6071C56.1322 14.6929 56.1812 14.8094 56.1821 14.9312ZM76.2715 14.9312V23.5982C76.2715 23.7197 76.2232 23.8362 76.1373 23.9221C76.0514 24.008 75.9349 24.0563 75.8134 24.0563H74.3677C74.1143 24.0563 73.8652 23.9902 73.6451 23.8647C73.4249 23.7391 73.2412 23.5584 73.1121 23.3403L69.5422 17.3067L69.4472 17.3304V23.5982C69.4472 23.7197 69.3989 23.8362 69.313 23.9221C69.2271 24.008 69.1106 24.0563 68.9891 24.0563H67.6317C67.5102 24.0563 67.3937 24.008 67.3077 23.9221C67.2218 23.8362 67.1736 23.7197 67.1736 23.5982V14.9312C67.1736 14.8097 67.2218 14.6932 67.3077 14.6073C67.3937 14.5214 67.5102 14.4731 67.6317 14.4731H69.0943C69.3447 14.4735 69.5908 14.5383 69.8089 14.6613C70.027 14.7844 70.2098 14.9615 70.3397 15.1756L73.8926 21.0395L73.9877 21.0124V14.9312C73.9877 14.8097 74.0359 14.6932 74.1218 14.6073C74.2078 14.5214 74.3243 14.4731 74.4458 14.4731H75.8032C75.8642 14.4718 75.9249 14.4826 75.9816 14.505C76.0384 14.5274 76.0901 14.561 76.1337 14.6036C76.1773 14.6463 76.212 14.6973 76.2357 14.7535C76.2593 14.8098 76.2715 14.8702 76.2715 14.9312ZM24.5617 15.162C24.4955 14.9642 24.3688 14.7923 24.1995 14.6705C24.0302 14.5487 23.8268 14.4832 23.6183 14.4833H22.0233C21.8148 14.4832 21.6115 14.5487 21.4422 14.6705C21.2729 14.7923 21.1462 14.9642 21.08 15.162L18.3923 23.6084C18.3745 23.6609 18.3698 23.7169 18.3787 23.7717C18.3875 23.8264 18.4097 23.8782 18.4432 23.9224C18.4767 23.9666 18.5205 24.0019 18.5708 24.0252C18.6211 24.0486 18.6763 24.0592 18.7317 24.0563H19.8413C20.0775 24.0566 20.3072 23.9798 20.4958 23.8378C20.6844 23.6957 20.8216 23.496 20.8865 23.269L21.1953 22.2069H24.4734L24.7788 23.269C24.8454 23.4957 24.9835 23.6949 25.1724 23.8367C25.3614 23.9786 25.5911 24.0556 25.8274 24.0563H26.9371C26.9925 24.0592 27.0477 24.0486 27.098 24.0252C27.1483 24.0019 27.1921 23.9666 27.2256 23.9224C27.2591 23.8782 27.2812 23.8264 27.2901 23.7717C27.299 23.7169 27.2943 23.6609 27.2764 23.6084L24.5617 15.162ZM21.7179 20.3065L22.7869 16.6076H22.8344L23.9033 20.3065H21.7179ZM63.3966 15.1586C63.3311 14.9611 63.205 14.7892 63.0362 14.6674C62.8675 14.5456 62.6647 14.48 62.4566 14.4799H60.8583C60.6501 14.4795 60.447 14.5449 60.2782 14.6668C60.1094 14.7887 59.9834 14.9608 59.9183 15.1586L57.2273 23.6084C57.2095 23.6609 57.2048 23.7169 57.2136 23.7717C57.2225 23.8264 57.2446 23.8782 57.2781 23.9224C57.3116 23.9666 57.3554 24.0019 57.4057 24.0252C57.456 24.0486 57.5113 24.0592 57.5666 24.0563H58.6729C58.9098 24.0564 59.1403 23.9797 59.3299 23.8378C59.5196 23.6958 59.6581 23.4963 59.7249 23.269L60.0303 22.2069H63.3118L63.6172 23.269C63.6821 23.496 63.8193 23.6957 64.0079 23.8378C64.1965 23.9798 64.4263 24.0566 64.6624 24.0563H65.7721C65.8274 24.0592 65.8827 24.0486 65.933 24.0252C65.9833 24.0019 66.0271 23.9666 66.0606 23.9224C66.094 23.8782 66.1162 23.8264 66.125 23.7717C66.1339 23.7169 66.1292 23.6609 66.1114 23.6084L63.3966 15.1586ZM60.5665 20.3065L61.632 16.6076H61.6829L62.7485 20.3065H60.5665ZM43.6194 14.9312V16.0341C43.6194 16.1556 43.5712 16.2721 43.4853 16.3581C43.3993 16.444 43.2828 16.4922 43.1613 16.4922H41.4001V23.6185C41.4001 23.74 41.3518 23.8566 41.2659 23.9425C41.18 24.0284 41.0635 24.0767 40.942 24.0767H39.5846C39.4631 24.0767 39.3466 24.0284 39.2607 23.9425C39.1747 23.8566 39.1265 23.74 39.1265 23.6185V16.4922H37.3279C37.2064 16.4922 37.0899 16.444 37.004 16.3581C36.9181 16.2721 36.8698 16.1556 36.8698 16.0341V14.9312C36.8694 14.8708 36.8809 14.8109 36.9037 14.7549C36.9265 14.6989 36.9602 14.648 37.0028 14.6051C37.0454 14.5622 37.096 14.5282 37.1518 14.5049C37.2076 14.4817 37.2675 14.4697 37.3279 14.4697H43.1613C43.2218 14.4697 43.2816 14.4817 43.3374 14.5049C43.3932 14.5282 43.4439 14.5622 43.4865 14.6051C43.529 14.648 43.5627 14.6989 43.5855 14.7549C43.6084 14.8109 43.6199 14.8708 43.6194 14.9312ZM17.2148 14.9312V23.5982C17.2148 23.7197 17.1665 23.8362 17.0806 23.9221C16.9947 24.008 16.8782 24.0563 16.7567 24.0563H15.3993C15.3384 24.0572 15.2779 24.046 15.2214 24.0235C15.1648 24.0009 15.1133 23.9673 15.0697 23.9247C15.0262 23.8822 14.9915 23.8314 14.9677 23.7753C14.9439 23.7193 14.9314 23.6591 14.931 23.5982V20.2895H11.7004V23.5982C11.6995 23.7194 11.6509 23.8354 11.5652 23.9211C11.4795 24.0069 11.3635 24.0554 11.2423 24.0563H9.88488C9.76338 24.0563 9.64685 24.008 9.56094 23.9221C9.47502 23.8362 9.42676 23.7197 9.42676 23.5982V14.9312C9.42676 14.8097 9.47502 14.6932 9.56094 14.6073C9.64685 14.5214 9.76338 14.4731 9.88488 14.4731H11.2423C11.3635 14.474 11.4795 14.5226 11.5652 14.6083C11.6509 14.694 11.6995 14.81 11.7004 14.9312V18.3858H14.931V14.9312C14.9319 14.81 14.9804 14.694 15.0661 14.6083C15.1519 14.5226 15.2679 14.474 15.3891 14.4731H16.7465C16.8075 14.4718 16.8682 14.4826 16.9249 14.505C16.9817 14.5274 17.0334 14.561 17.077 14.6036C17.1207 14.6463 17.1553 14.6973 17.179 14.7535C17.2026 14.8098 17.2148 14.8702 17.2148 14.9312ZM86.7811 14.9312V23.5982C86.7802 23.7194 86.7316 23.8354 86.6459 23.9211C86.5602 24.0069 86.4442 24.0554 86.323 24.0563H84.8773C84.6239 24.0563 84.3748 23.9902 84.1546 23.8647C83.9345 23.7391 83.7508 23.5584 83.6217 23.3403L80.0484 17.3067L79.9534 17.3304V23.5982C79.9525 23.7194 79.904 23.8354 79.8182 23.9211C79.7325 24.0069 79.6165 24.0554 79.4953 24.0563H78.1379C78.0164 24.0563 77.8999 24.008 77.8139 23.9221C77.728 23.8362 77.6798 23.7197 77.6798 23.5982V14.9312C77.6798 14.8097 77.728 14.6932 77.8139 14.6073C77.8999 14.5214 78.0164 14.4731 78.1379 14.4731H79.6005C79.8509 14.4735 80.097 14.5383 80.3151 14.6613C80.5332 14.7844 80.716 14.9615 80.8459 15.1756L84.3988 21.0395L84.4939 21.0124V14.9312C84.4939 14.8097 84.5421 14.6932 84.628 14.6073C84.714 14.5214 84.8305 14.4731 84.952 14.4731H86.3094C86.3703 14.4722 86.4307 14.4834 86.4873 14.506C86.5439 14.5285 86.5954 14.5621 86.6389 14.6047C86.6824 14.6473 86.7171 14.698 86.7409 14.7541C86.7647 14.8101 86.7772 14.8703 86.7777 14.9312" fill="white"/>
</svg>