<svg class="nq-i-mieux-voir-2" role="presentation" id="mieux-voir-2-Calque_1-6522b618bc91e" data-name="Calque 1" xmlns="http://www.w3.org/2000/svg" viewBox="0 0 43.1 35.1"><defs><style>.cls-1{fill:#fff}</style></defs><path d="M0 0h43.1v35.1H0z"></path><path class="cls-1" d="M5.96 12.65l1.56 6.23h1.54l1.57-6.23v6.23h1.48v-7.91H9.72L8.3 16.36l-1.44-5.39H4.47v7.91h1.49v-6.23zM13.65 10.97h1.6v7.91h-1.6zM22.79 17.55h-4.42v-2.16h3.97v-1.33h-3.97v-1.75h4.27v-1.34h-5.87v7.91h6.02v-1.33zM28.84 15.35a8.48 8.48 0 01-.07 1.34 1.1 1.1 0 01-.42.68 1.57 1.57 0 01-1 .28 1.7 1.7 0 01-1-.29 1.3 1.3 0 01-.49-.78 8.91 8.91 0 01-.06-1.33V11h-1.6v4.22a9.29 9.29 0 00.16 2 2.24 2.24 0 00.44.87 2.44 2.44 0 00.93.68 4.28 4.28 0 001.72.26 4.07 4.07 0 001.52-.24 2.37 2.37 0 00.93-.64 2.29 2.29 0 00.48-1 11.27 11.27 0 00.13-2V11h-1.6zM33.23 18.88l1.76-2.74 1.75 2.74h1.93l-2.7-4.07 2.46-3.84h-1.85l-1.56 2.54-1.58-2.54h-1.87l2.45 3.78-2.7 4.13h1.91zM8.03 28.04l-2.7-7.91H2.98L6.8 30.82h2.31l3.83-10.69h-2.29l-2.62 7.91zM19.47 20a5.86 5.86 0 00-2.3.42 4 4 0 00-1.39 1 5 5 0 00-1 1.46 6.72 6.72 0 00-.49 2.74 5.52 5.52 0 001.41 4A5 5 0 0019.5 31a5 5 0 003.76-1.46 5.58 5.58 0 001.41-4.05 5.62 5.62 0 00-1.42-4.07A5 5 0 0019.47 20zm2.14 8.28a2.88 2.88 0 01-4.25 0 4 4 0 01-.84-2.75 4.06 4.06 0 01.82-2.76 2.74 2.74 0 012.15-.92 2.74 2.74 0 012.14.91 4 4 0 01.81 2.74 4.1 4.1 0 01-.83 2.73zM26.29 20.13h2.16v10.69h-2.16zM38.81 28.74A11.9 11.9 0 0037.58 27a5.17 5.17 0 00-1.15-.9 3.38 3.38 0 002.11-1 2.89 2.89 0 00.71-2 3.08 3.08 0 00-.47-1.68 2.39 2.39 0 00-1.24-1 7.84 7.84 0 00-2.49-.29h-4.54v10.69h2.15v-4.46h.44a3.58 3.58 0 011.09.12 1.75 1.75 0 01.65.44A15.33 15.33 0 0136 28.5l1.56 2.32h2.59zm-4.55-4.09h-1.6v-2.71h1.69a15.29 15.29 0 011.57 0 1.38 1.38 0 01.82.42 1.28 1.28 0 01.28.87 1.42 1.42 0 01-.21.8 1.21 1.21 0 01-.61.45 8.12 8.12 0 01-1.94.17z"></path></svg>