<?xml version="1.0" encoding="UTF-8" standalone="no"?>
<!DOCTYPE svg PUBLIC "-//W3C//DTD SVG 1.1//EN" "http://www.w3.org/Graphics/SVG/1.1/DTD/svg11.dtd">
<svg width="150px" height="35.3px" viewBox="0 0 161 38" version="1.1" xmlns="http://www.w3.org/2000/svg" xmlns:xlink="http://www.w3.org/1999/xlink" xml:space="preserve" xmlns:serif="http://www.serif.com/" style="fill-rule:evenodd;clip-rule:evenodd;stroke-linecap:round;stroke-linejoin:round;stroke-miterlimit:1.5;"><g><path d="M37.102,16.986c-0.279,-0.584 -0.654,-1.112 -1.108,-1.507l-14.096,-14.2c-1.693,-1.705 -4.451,-1.705 -6.144,-0l-14.096,14.2c-0.454,0.395 -0.829,0.923 -1.108,1.507c-0.348,0.661 -0.55,1.4 -0.55,2.094l0,14.826c0,2.057 1.668,3.725 3.725,3.725l30.202,-0c2.057,-0 3.725,-1.668 3.725,-3.725l-0,-14.826c-0,-0.694 -0.202,-1.433 -0.55,-2.094" style="fill:#0099b2;fill-rule:nonzero;"/><path d="M33.917,26.276c-0,4.167 -3.378,7.545 -7.545,7.545l-7.545,-0l0,-7.545c0,-4.167 3.378,-7.543 7.545,-7.543c4.167,-0 7.545,3.376 7.545,7.543" style="fill:#fff;fill-rule:nonzero;"/><path d="M29.586,26.201c-0,1.741 -1.412,3.153 -3.154,3.153c-1.742,0 -3.154,-1.412 -3.154,-3.153c0,-1.743 1.412,-3.154 3.154,-3.154c1.742,-0 3.154,1.411 3.154,3.154" style="fill:#f05325;fill-rule:nonzero;"/><path d="M74.446,9.104l-0,22.519l-2.898,0l-0,-14.127l-8.03,11.38l-0.06,0l-7.879,-10.988l0,13.735l-2.837,0l-0,-22.519l0.03,0l10.746,15.214l10.898,-15.214l0.03,0Z" style="fill-rule:nonzero;"/><path d="M82.837,31.623l-2.807,0l-0,-12.497l2.807,0l0,12.497Zm-2.505,-18.111c0.342,-0.303 0.734,-0.454 1.177,-0.454c0.442,0 0.83,0.151 1.162,0.454c0.332,0.301 0.498,0.674 0.498,1.116c0,0.443 -0.166,0.815 -0.498,1.117c-0.332,0.302 -0.72,0.453 -1.162,0.453c-0.443,0 -0.835,-0.151 -1.177,-0.453c-0.343,-0.302 -0.514,-0.674 -0.514,-1.117c0,-0.442 0.171,-0.815 0.514,-1.116" style="fill-rule:nonzero;"/><path d="M98.383,19.685c0.765,0.694 1.157,1.595 1.177,2.701l0,9.237l-2.837,0l0,-8.271c-0.041,-0.704 -0.252,-1.257 -0.634,-1.66c-0.382,-0.402 -0.956,-0.613 -1.721,-0.634c-1.107,0 -2.022,0.443 -2.747,1.328c-0.724,0.886 -1.086,2.013 -1.086,3.381l-0,5.856l-2.808,0l0,-12.497l2.536,0l0.181,2.415c0.443,-0.906 1.107,-1.615 1.992,-2.128c0.886,-0.513 1.902,-0.77 3.049,-0.77c1.167,0 2.133,0.347 2.898,1.042" style="fill-rule:nonzero;"/><path d="M115.077,19.685c0.764,0.694 1.157,1.595 1.177,2.701l-0,9.237l-2.838,0l0,-8.271c-0.04,-0.704 -0.252,-1.257 -0.634,-1.66c-0.382,-0.402 -0.956,-0.613 -1.72,-0.634c-1.107,0 -2.023,0.443 -2.748,1.328c-0.724,0.886 -1.086,2.013 -1.086,3.381l-0,5.856l-2.808,0l0,-12.497l2.536,0l0.181,2.415c0.443,-0.906 1.107,-1.615 1.993,-2.128c0.885,-0.513 1.901,-0.77 3.048,-0.77c1.167,0 2.134,0.347 2.899,1.042" style="fill-rule:nonzero;"/><path d="M123.921,31.623l-2.808,0l0,-12.497l2.808,0l-0,12.497Zm-2.506,-18.111c0.342,-0.303 0.735,-0.454 1.178,-0.454c0.442,0 0.83,0.151 1.162,0.454c0.332,0.301 0.498,0.674 0.498,1.116c-0,0.443 -0.166,0.815 -0.498,1.117c-0.332,0.302 -0.72,0.453 -1.162,0.453c-0.443,0 -0.836,-0.151 -1.178,-0.453c-0.342,-0.302 -0.513,-0.674 -0.513,-1.117c0,-0.442 0.171,-0.815 0.513,-1.116" style="fill-rule:nonzero;"/><path d="M132.856,13.632l-0,5.524l3.411,0l0,2.234l-3.411,-0l-0,10.233l-2.838,0l0,-10.233l-2.294,-0l0,-2.234l2.294,0l0,-5.524l2.838,0Z" style="fill-rule:nonzero;"/><path d="M151.571,19.126l-8.06,18.505l-2.777,-0l2.868,-6.43l-5.796,-12.075l3.17,0l4.045,8.905l3.954,-8.905l2.596,0Z" style="fill-rule:nonzero;"/><g><circle cx="154.864" cy="10.341" r="5.136" style="fill:none;stroke:#7a7a7a;stroke-width:0.84px;"/><path d="M153.852,10.493l-0,2.288l-0.64,-0l-0,-5.502l1.509,-0c0.675,-0 1.173,0.129 1.496,0.387c0.322,0.259 0.483,0.648 0.483,1.167c0,0.728 -0.368,1.219 -1.106,1.475l1.494,2.473l-0.756,-0l-1.333,-2.288l-1.147,-0Zm-0,-0.55l0.876,0c0.452,0 0.783,-0.09 0.994,-0.269c0.211,-0.179 0.316,-0.448 0.316,-0.807c0,-0.364 -0.107,-0.626 -0.322,-0.787c-0.214,-0.16 -0.559,-0.24 -1.033,-0.24l-0.831,-0l-0,2.103Z" style="fill:#7a7a7a;fill-rule:nonzero;"/></g></g></svg>