<svg xmlns="http://www.w3.org/2000/svg" width="200.001" height="53.274" viewBox="0 0 200.001 53.274"><g transform="translate(0 -23)"><g transform="translate(0 67.564)"><path d="M87.353,282.11a4.224,4.224,0,0,0-1.274-.251,1.182,1.182,0,0,0-.639.149.487.487,0,0,0-.233.437.6.6,0,0,0,.2.461,1.572,1.572,0,0,0,.5.3q.3.114.885.293a11.547,11.547,0,0,1,1.442.5,2.514,2.514,0,0,1,.974.771,2.143,2.143,0,0,1,.407,1.358,2.318,2.318,0,0,1-.443,1.43,2.684,2.684,0,0,1-1.214.891,4.721,4.721,0,0,1-1.717.3,6.189,6.189,0,0,1-2.075-.365,5.679,5.679,0,0,1-1.789-1l.849-1.711a5.288,5.288,0,0,0,1.5.922,4.108,4.108,0,0,0,1.537.358,1.426,1.426,0,0,0,.772-.179.585.585,0,0,0,.281-.526.622.622,0,0,0-.21-.479,1.54,1.54,0,0,0-.526-.3q-.317-.114-.891-.27a10.765,10.765,0,0,1-1.423-.485,2.505,2.505,0,0,1-.964-.741,2.043,2.043,0,0,1-.4-1.322,2.307,2.307,0,0,1,.413-1.364,2.623,2.623,0,0,1,1.173-.9,4.563,4.563,0,0,1,1.765-.317,6.4,6.4,0,0,1,1.794.257,5.946,5.946,0,0,1,1.555.688l-.825,1.747A7.367,7.367,0,0,0,87.353,282.11Z" transform="translate(-82.383 -280.064)" fill="#0067da"></path><path d="M91.515,280.252H98.13V282H93.7v1.567h4V285.3l-4,.012v1.58H98.25v1.746H91.515Z" transform="translate(-83.36 -280.084)" fill="#0067da"></path><path d="M105.332,288.637l-1.22-2.32h-1.627v2.32H100.3v-8.385h3.768a3.887,3.887,0,0,1,2.578.772,2.683,2.683,0,0,1,.915,2.171,3.306,3.306,0,0,1-.383,1.633,2.651,2.651,0,0,1-1.113,1.071l1.747,2.739Zm-2.847-4.067h1.59a1.474,1.474,0,0,0,1.035-.335,1.249,1.249,0,0,0,.365-.97,1.2,1.2,0,0,0-.365-.939,1.489,1.489,0,0,0-1.035-.329h-1.59Z" transform="translate(-84.3 -280.084)" fill="#0067da"></path><path d="M108.345,280.252H110.7l2.093,6.065,2.106-6.065h2.249l-3.277,8.385H111.6Z" transform="translate(-85.161 -280.084)" fill="#0067da"></path><path d="M118.693,280.252h2.19v8.385h-2.19Z" transform="translate(-86.268 -280.084)" fill="#0067da"></path><path d="M127.733,282.264a2.32,2.32,0,0,0-1.113-.305,2.174,2.174,0,0,0-1.155.317,2.259,2.259,0,0,0-.82.873,2.712,2.712,0,0,0,0,2.476,2.259,2.259,0,0,0,.82.873,2.182,2.182,0,0,0,1.155.317,2.534,2.534,0,0,0,1.077-.263,3.41,3.41,0,0,0,1-.718l1.28,1.375a5.1,5.1,0,0,1-1.621,1.143,4.5,4.5,0,0,1-4.11-.149,4.2,4.2,0,0,1-1.579-1.568,4.357,4.357,0,0,1-.574-2.224,4.177,4.177,0,0,1,2.195-3.744,4.766,4.766,0,0,1,4.134-.173,4.575,4.575,0,0,1,1.543,1.058l-1.268,1.531A3.126,3.126,0,0,0,127.733,282.264Z" transform="translate(-86.76 -280.068)" fill="#0067da"></path><path d="M131.613,280.252h6.615V282H133.8v1.567h4V285.3l-4,.012v1.58h4.545v1.746h-6.735Z" transform="translate(-87.808 -280.084)" fill="#0067da"></path><path d="M144.582,282.11a4.224,4.224,0,0,0-1.274-.251,1.18,1.18,0,0,0-.639.149.486.486,0,0,0-.234.437.6.6,0,0,0,.2.461,1.563,1.563,0,0,0,.5.3q.3.114.885.293a11.478,11.478,0,0,1,1.441.5,2.523,2.523,0,0,1,.975.771,2.142,2.142,0,0,1,.406,1.358,2.323,2.323,0,0,1-.442,1.43,2.686,2.686,0,0,1-1.214.891,4.72,4.72,0,0,1-1.716.3,6.189,6.189,0,0,1-2.075-.365,5.68,5.68,0,0,1-1.789-1l.849-1.711a5.27,5.27,0,0,0,1.5.922,4.112,4.112,0,0,0,1.538.358,1.426,1.426,0,0,0,.772-.179.586.586,0,0,0,.28-.526.622.622,0,0,0-.209-.479,1.54,1.54,0,0,0-.526-.3q-.317-.114-.891-.27a10.826,10.826,0,0,1-1.424-.485,2.5,2.5,0,0,1-.963-.741,2.043,2.043,0,0,1-.4-1.322,2.307,2.307,0,0,1,.413-1.364,2.628,2.628,0,0,1,1.173-.9,4.566,4.566,0,0,1,1.765-.317,6.4,6.4,0,0,1,1.795.257,5.96,5.96,0,0,1,1.555.688l-.825,1.747A7.368,7.368,0,0,0,144.582,282.11Z" transform="translate(-88.69 -280.064)" fill="#0067da"></path><path d="M157.59,288.637l-.574-1.482h-3.625l-.586,1.482h-2.249l3.6-8.385h2.249l3.517,8.385Zm-3.541-3.158h2.321l-1.148-2.991Z" transform="translate(-89.898 -280.084)" fill="#0067da"></path><path d="M163.63,286.449a1.586,1.586,0,0,0,1.184.479,1.484,1.484,0,0,0,1.143-.472,1.8,1.8,0,0,0,.437-1.274v-4.928h2.189v4.928a3.838,3.838,0,0,1-.46,1.908,3.118,3.118,0,0,1-1.316,1.262,4.308,4.308,0,0,1-2,.443,4.38,4.38,0,0,1-2.015-.443,3.165,3.165,0,0,1-1.339-1.262,3.751,3.751,0,0,1-.473-1.908v-4.928h2.19v4.928A1.74,1.74,0,0,0,163.63,286.449Z" transform="translate(-91.044 -280.084)" fill="#0067da"></path><path d="M170.039,280.252h2.548l1.567,2.38,1.58-2.38h2.583l-2.763,4.008,3,4.377h-2.619l-1.783-2.6-1.746,2.6h-2.56l2.978-4.27Z" transform="translate(-92.024 -280.084)" fill="#0067da"></path><path d="M188.649,284.339h1.89v3.338a5.606,5.606,0,0,1-1.645.8,6.19,6.19,0,0,1-1.848.305,4.626,4.626,0,0,1-2.291-.569,4.2,4.2,0,0,1-1.609-1.561,4.291,4.291,0,0,1-.587-2.225,4.142,4.142,0,0,1,.6-2.207,4.242,4.242,0,0,1,1.663-1.549,4.954,4.954,0,0,1,2.363-.563,5.414,5.414,0,0,1,1.865.341,4.864,4.864,0,0,1,1.58.915l-1.244,1.532a3.5,3.5,0,0,0-1.047-.682,2.97,2.97,0,0,0-1.167-.251,2.3,2.3,0,0,0-2.057,1.208,2.554,2.554,0,0,0-.311,1.256,2.611,2.611,0,0,0,.311,1.274,2.285,2.285,0,0,0,.862.891,2.365,2.365,0,0,0,1.22.323,3.306,3.306,0,0,0,1.448-.407Z" transform="translate(-93.424 -280.068)" fill="#0067da"></path><path d="M197.856,288.637l-1.22-2.32H195.01v2.32h-2.19v-8.385h3.768a3.887,3.887,0,0,1,2.578.772,2.683,2.683,0,0,1,.915,2.171,3.306,3.306,0,0,1-.383,1.633,2.651,2.651,0,0,1-1.113,1.071l1.747,2.739Zm-2.847-4.067H196.6a1.473,1.473,0,0,0,1.034-.335,1.249,1.249,0,0,0,.365-.97,1.2,1.2,0,0,0-.365-.939A1.488,1.488,0,0,0,196.6,282H195.01Z" transform="translate(-94.554 -280.084)" fill="#0067da"></path><path d="M208.483,288.637l-.574-1.482h-3.625l-.587,1.482h-2.249l3.6-8.385H207.3l3.518,8.385Zm-3.542-3.158h2.321l-1.148-2.991Z" transform="translate(-95.509 -280.084)" fill="#0067da"></path><path d="M218.143,280.252h2.033v8.385h-1.914l-3.8-5.011v5.011h-2.045v-8.385h1.925l3.817,5.048Z" transform="translate(-96.714 -280.084)" fill="#0067da"></path><path d="M228.576,280.778a3.855,3.855,0,0,1,1.573,1.478,4.507,4.507,0,0,1-.006,4.372,3.851,3.851,0,0,1-1.6,1.483,5.165,5.165,0,0,1-2.374.526h-3.529v-8.385h3.612A4.966,4.966,0,0,1,228.576,280.778Zm-1.142,5.79a2.034,2.034,0,0,0,.765-.849,2.778,2.778,0,0,0,.275-1.256,2.655,2.655,0,0,0-.293-1.268,2.143,2.143,0,0,0-.807-.855,2.263,2.263,0,0,0-1.173-.3h-1.375v4.833h1.482A2.119,2.119,0,0,0,227.434,286.568Z" transform="translate(-97.841 -280.084)" fill="#0067da"></path><path d="M236.745,282.11a4.229,4.229,0,0,0-1.274-.251,1.185,1.185,0,0,0-.64.149.487.487,0,0,0-.233.437.6.6,0,0,0,.2.461,1.563,1.563,0,0,0,.5.3q.3.114.885.293a11.474,11.474,0,0,1,1.441.5,2.523,2.523,0,0,1,.975.771,2.148,2.148,0,0,1,.406,1.358,2.323,2.323,0,0,1-.442,1.43,2.686,2.686,0,0,1-1.214.891,4.72,4.72,0,0,1-1.716.3,6.194,6.194,0,0,1-2.076-.365,5.675,5.675,0,0,1-1.788-1l.849-1.711a5.27,5.27,0,0,0,1.5.922,4.112,4.112,0,0,0,1.537.358,1.426,1.426,0,0,0,.772-.179.585.585,0,0,0,.281-.526.621.621,0,0,0-.209-.479,1.535,1.535,0,0,0-.527-.3q-.316-.114-.891-.27a10.809,10.809,0,0,1-1.423-.485,2.5,2.5,0,0,1-.963-.741,2.038,2.038,0,0,1-.4-1.322,2.307,2.307,0,0,1,.413-1.364,2.629,2.629,0,0,1,1.173-.9,4.566,4.566,0,0,1,1.765-.317,6.4,6.4,0,0,1,1.794.257,5.953,5.953,0,0,1,1.556.688l-.825,1.747A7.391,7.391,0,0,0,236.745,282.11Z" transform="translate(-98.846 -280.064)" fill="#0067da"></path><path d="M240.7,284.766h3.17v1.364H240.7Z" transform="translate(-99.82 -280.567)" fill="#0067da"></path><path d="M251.8,281.024a2.728,2.728,0,0,1,.885,2.171,2.985,2.985,0,0,1-.885,2.3,3.526,3.526,0,0,1-2.489.82h-1.495v2.32h-2.19v-8.385h3.684A3.668,3.668,0,0,1,251.8,281.024Zm-1.562,3.212a1.249,1.249,0,0,0,.365-.97,1.2,1.2,0,0,0-.365-.939A1.489,1.489,0,0,0,249.2,282h-1.387v2.572H249.2A1.474,1.474,0,0,0,250.234,284.236Z" transform="translate(-100.372 -280.084)" fill="#0067da"></path><path d="M259.737,288.637l-.574-1.482h-3.625l-.587,1.482H252.7l3.6-8.385h2.249l3.517,8.385ZM256.2,285.48h2.32l-1.148-2.991Z" transform="translate(-101.159 -280.084)" fill="#0067da"></path><path d="M268.7,288.637l-1.221-2.32h-1.627v2.32h-2.189v-8.385h3.768a3.885,3.885,0,0,1,2.578.772,2.681,2.681,0,0,1,.915,2.171,3.316,3.316,0,0,1-.382,1.633,2.657,2.657,0,0,1-1.113,1.071l1.747,2.739Zm-2.848-4.067h1.591a1.477,1.477,0,0,0,1.035-.335,1.251,1.251,0,0,0,.364-.97,1.2,1.2,0,0,0-.364-.939,1.492,1.492,0,0,0-1.035-.329h-1.591Z" transform="translate(-102.474 -280.084)" fill="#0067da"></path><path d="M272.986,280.252H279.6V282h-4.426v1.567h4V285.3l-4,.012v1.58h4.545v1.746h-6.735Z" transform="translate(-103.471 -280.084)" fill="#0067da"></path><path d="M287.5,280.252h2.033v8.385h-1.915l-3.8-5.011v5.011h-2.046v-8.385h1.925l3.817,5.048Z" transform="translate(-104.411 -280.084)" fill="#0067da"></path><path d="M291.014,280.252h7.19v1.806h-2.512v6.58H293.5v-6.58h-2.489Z" transform="translate(-105.4 -280.084)" fill="#0067da"></path><path d="M303.922,282.11a4.228,4.228,0,0,0-1.274-.251,1.185,1.185,0,0,0-.64.149.487.487,0,0,0-.233.437.6.6,0,0,0,.2.461,1.562,1.562,0,0,0,.5.3q.3.114.885.293a11.481,11.481,0,0,1,1.441.5,2.523,2.523,0,0,1,.975.771,2.147,2.147,0,0,1,.406,1.358,2.322,2.322,0,0,1-.442,1.43,2.686,2.686,0,0,1-1.214.891,4.72,4.72,0,0,1-1.716.3,6.2,6.2,0,0,1-2.076-.365,5.675,5.675,0,0,1-1.788-1l.849-1.711a5.27,5.27,0,0,0,1.5.922,4.112,4.112,0,0,0,1.537.358,1.422,1.422,0,0,0,.772-.179.585.585,0,0,0,.281-.526.621.621,0,0,0-.209-.479,1.535,1.535,0,0,0-.527-.3q-.316-.114-.891-.27a10.81,10.81,0,0,1-1.423-.485,2.5,2.5,0,0,1-.963-.741,2.038,2.038,0,0,1-.4-1.322,2.307,2.307,0,0,1,.413-1.364,2.628,2.628,0,0,1,1.173-.9,4.566,4.566,0,0,1,1.765-.317,6.4,6.4,0,0,1,1.794.257,5.952,5.952,0,0,1,1.556.688l-.825,1.747A7.39,7.39,0,0,0,303.922,282.11Z" transform="translate(-106.25 -280.064)" fill="#0067da"></path></g><g transform="translate(0.467 23)"><path d="M104.279,236.614q-3.24-2.974-8.751-2.973H82.9v32.393H89.48V255.446h6.047q5.56,0,8.775-2.974a11.356,11.356,0,0,0-.024-15.859Zm-4.714,11.531a5.634,5.634,0,0,1-4.037,1.355H89.48v-9.912h6.047a5.638,5.638,0,0,1,4.037,1.354,4.707,4.707,0,0,1,1.426,3.578A4.766,4.766,0,0,1,99.565,248.145Z" transform="translate(-82.905 -230.348)" fill="#0067da"></path><path d="M123.764,242.168a12.058,12.058,0,0,0-8.872,3.6,13.581,13.581,0,0,0-.024,18.4,11.962,11.962,0,0,0,8.8,3.578,13.231,13.231,0,0,0,7.107-1.886,11.607,11.607,0,0,0,4.593-5.561l-5.7-1.208a6.45,6.45,0,0,1-6,3.191,5.59,5.59,0,0,1-3.892-1.523,7.134,7.134,0,0,1-2.152-4.085H136V254.5a12.5,12.5,0,0,0-3.746-8.872A11.747,11.747,0,0,0,123.764,242.168Zm-5.946,10.007a5.4,5.4,0,0,1,2.249-3.287,6.48,6.48,0,0,1,3.7-1.161,5.974,5.974,0,0,1,3.578,1.113,5.7,5.7,0,0,1,2.127,3.335Z" transform="translate(-85.942 -231.261)" fill="#0067da"></path><path d="M215.637,252.853l-5.754-1.257q-2.177-.484-2.175-2.031a2.176,2.176,0,0,1,.773-1.668,3.694,3.694,0,0,1,2.515-.7,5.161,5.161,0,0,1,3.167.919,4.037,4.037,0,0,1,1.491,2.349l5.945-1.389a7.9,7.9,0,0,0-3.375-4.926,11.967,11.967,0,0,0-7.036-1.981,10.892,10.892,0,0,0-7.179,2.224,7.127,7.127,0,0,0-2.683,5.754,6.025,6.025,0,0,0,1.765,4.4,9.632,9.632,0,0,0,5.053,2.465l4.931,1.016q2.66.58,2.659,2.175a2.021,2.021,0,0,1-1.015,1.74,4.914,4.914,0,0,1-2.756.677c-3.03,0-4.7-1.355-5.381-3.552l-6.177,1.506a8.771,8.771,0,0,0,3.629,5.406,14.42,14.42,0,0,0,7.348,1.765,12.9,12.9,0,0,0,7.712-2.08,6.942,6.942,0,0,0,2.876-6,6.274,6.274,0,0,0-1.619-4.327A8.566,8.566,0,0,0,215.637,252.853Z" transform="translate(-95.885 -231.261)" fill="#0067da"></path><path d="M302.921,255.342a8.566,8.566,0,0,0-4.714-2.49l-5.754-1.257q-2.177-.484-2.175-2.031a2.176,2.176,0,0,1,.773-1.668,3.694,3.694,0,0,1,2.515-.7,5.161,5.161,0,0,1,3.167.919,4.037,4.037,0,0,1,1.491,2.349l5.945-1.389a7.9,7.9,0,0,0-3.375-4.926,11.967,11.967,0,0,0-7.036-1.981,10.892,10.892,0,0,0-7.179,2.224,7.127,7.127,0,0,0-2.683,5.754,6.025,6.025,0,0,0,1.765,4.4,9.632,9.632,0,0,0,5.053,2.465l4.931,1.016q2.66.58,2.659,2.175a2.023,2.023,0,0,1-1.015,1.74,4.914,4.914,0,0,1-2.756.677c-3.03,0-4.7-1.355-5.381-3.552l-6.177,1.506a8.771,8.771,0,0,0,3.629,5.406,14.419,14.419,0,0,0,7.348,1.765,12.9,12.9,0,0,0,7.712-2.08,6.942,6.942,0,0,0,2.876-6A6.275,6.275,0,0,0,302.921,255.342Z" transform="translate(-105.006 -231.261)" fill="#0067da"></path><rect width="6.382" height="34.811" transform="translate(168.793 0.9)" fill="#0067da"></rect><path d="M190.037,261.029q-3.528,0-3.529-4.158v-9.247h7.665v-5.429h-7.665v-7.206h-6.382v7.206h-8.091a6.705,6.705,0,0,0-6.7,6.7V266.19h6.346V249.743a2.12,2.12,0,0,1,2.12-2.119h6.33v9.73q0,4.836,2.515,7.228a9.686,9.686,0,0,0,6.962,2.394,27.429,27.429,0,0,0,6.373-1.273l-1.673-5.356A17.29,17.29,0,0,1,190.037,261.029Z" transform="translate(-92.025 -230.492)" fill="#0067da"></path><path d="M154.42,261.029q-3.528,0-3.529-4.158V247.62h8v-5.425h-8v-7.206h-6.382v7.206h-5.058v5.425h5.058v9.735q0,4.836,2.515,7.228a9.684,9.684,0,0,0,6.962,2.394,27.423,27.423,0,0,0,6.372-1.273l-1.672-5.356A17.29,17.29,0,0,1,154.42,261.029Z" transform="translate(-89.151 -230.492)" fill="#0067da"></path><path d="M257.115,241.758H246.258v-1.851a3.264,3.264,0,0,1,1.015-2.586,3.949,3.949,0,0,1,2.707-.894h3.079v-5.52s-2,.075-3.514.075c-2.933,0-5.278.611-7.034,2.254a8.7,8.7,0,0,0-2.635,6.672v1.851H227.468v5.429h12.407v18.585h6.382V247.187h9.1a2.119,2.119,0,0,1,2.119,2.119v16.435h6.346V248.462A6.7,6.7,0,0,0,257.115,241.758Z" transform="translate(-98.92 -230.055)" fill="#0067da"></path><circle cx="4.497" cy="4.497" r="4.497" transform="translate(72.036)" fill="#0067da"></circle><circle cx="4.497" cy="4.497" r="4.497" transform="translate(157.223)" fill="#0067da"></circle></g></g></svg> 