<svg version="1.1" id="logo" xmlns="http://www.w3.org/2000/svg" x="0" y="0" viewBox="0 0 631.4 239.7" xml:space="preserve"><style type="text/css">.st0{fill:#fff}</style><path class="st0" d="M119.8 160.1c22 0 39.9-17.9 39.9-39.9s-17.9-39.9-39.9-39.9-39.9 17.9-39.9 39.9 17.9 39.9 39.9 39.9z"/><path class="st0" d="M114.8 147.3h10.6V174h-10.6z"/><path class="st0" d="M217.8 108.2c-5.8-49.8-47.4-87-98-87-54.5 0-98.7 44.2-98.7 98.7s46.4 98.9 98.7 98.7c40.6-.2 67.7-26.9 67.7-26.9l-102.5.1v-21.7h143.7s-24.7 65.7-108.9 69.5C53.7 242.6 0 185.9 0 119.8 0 53.6 53.7 0 119.8 0 180.3 0 231.2 46.1 239 108.1l-21.2.1zm105.3-35.4c1.2 0 2.1.8 2.8 2.5l9.6 24.4h.2l9.7-24.5c.6-1.6 1.5-2.4 2.7-2.4.6 0 1.1.2 1.5.5.4.3.6.7.6 1.3 0 .4-.2 1.1-.6 2.1l-.7 1.8-10.1 24.7c-.5 1.4-1 2.3-1.5 2.7s-1 .6-1.7.6c-.9 0-1.5-.2-2-.8-.3-.3-.6-.9-1-1.8l-11.8-29.4c.2-1.2.9-1.7 2.3-1.7zm32.8 0c1.6 0 2.3.7 2.3 2.2v29.4c0 1.4-.8 2-2.3 2-.7 0-1.3-.2-1.7-.6-.4-.5-.6-.9-.6-1.4V75c0-1.5.8-2.2 2.3-2.2zm10.8 0c1.6 0 2.3.7 2.3 2.2v27.4h10.1c1.5 0 2.2.6 2.2 1.9 0 1.2-.8 1.8-2.4 1.8h-12c-1.7 0-2.6-.7-2.6-2.2V75c.1-1.5.9-2.2 2.4-2.2zm20.8 0c1.6 0 2.3.7 2.3 2.2v27.4h10.1c1.5 0 2.2.6 2.2 1.9 0 1.2-.8 1.8-2.4 1.8h-12c-1.7 0-2.6-.7-2.6-2.2V75c.1-1.5.9-2.2 2.4-2.2zm21 .3h13.4c1.5 0 2.3.6 2.3 1.9 0 .5-.2.9-.5 1.3s-1 .5-1.8.5h-11.3v10.9h10.2c1.6 0 2.4.6 2.4 1.9 0 1.2-.8 1.9-2.4 1.9h-10.3v10.9h11.3c1.6 0 2.3.6 2.3 1.9 0 .6-.2 1-.5 1.3s-1 .5-2 .5h-13.2c-.7 0-1.3-.2-1.9-.5-.4-.4-.7-.9-.7-1.5V75.3c.2-1.5 1-2.2 2.7-2.2zm38.8 0h9.5c5.3 0 9.3 1.6 12.2 4.8s4.3 7.1 4.3 11.6c0 5.1-1.4 9.1-4.3 12.2-2.9 3.1-6.7 4.6-11.5 4.6h-10c-1.8 0-2.7-.8-2.7-2.3V75.4c0-1 .4-1.7 1.3-2.1.4-.2.8-.2 1.2-.2zm2.2 3.5v26h6.7c3.7 0 6.7-1.2 8.9-3.5 1.9-2 3-4.7 3.2-8.1 0-.5.1-1 .1-1.6 0-3.8-1-6.8-3.1-9.2s-5.3-3.6-9.6-3.6h-6.2zm31.2-3.5h13.4c1.5 0 2.3.6 2.3 1.9 0 .5-.2.9-.5 1.3s-1 .5-1.8.5h-11.3v10.9H493c1.6 0 2.4.6 2.4 1.9 0 1.2-.8 1.9-2.4 1.9h-10.2v10.9h11.3c1.6 0 2.3.6 2.3 1.9 0 .6-.2 1-.5 1.3s-1 .5-2 .5h-13.2c-.7 0-1.3-.2-1.9-.5-.4-.4-.7-.9-.7-1.5V75.3c.1-1.5.9-2.2 2.6-2.2z"/><path class="st0" d="M193.5 118.7c4.2 0 7.9.8 11 2.3 3 1.5 4.5 2.9 4.5 4.2 0 .6-.3 1.2-.8 1.6s-1.1.7-1.8.7-1.4-.2-2.2-.7l-2.6-1.5c-2.4-1.4-5.2-2.2-8.4-2.2-4.8 0-8.5 1.7-11 5-2.3 3.1-3.5 6.9-3.5 11.2 0 3.9 1 7.5 3.1 10.8 2.4 3.7 6.2 5.5 11.5 5.5 2 0 3.8-.3 5.4-.9 1.6-.6 3-1.6 4.2-2.9 2.3-2.5 3.5-5.3 3.5-8.6V141h-8c-.8 0-1.4-.2-2-.6-.5-.4-.7-1-.7-1.7 0-1.6.9-2.3 2.7-2.3h9.6c1.6 0 2.7.4 3.2 1.2.1.1.3.6.5 1.3l.1 1.1v.8c.1 2.4-.2 4.8-.9 7.2-1.6 5.2-4.6 8.7-9 10.4-2.6 1-5.6 1.5-9.3 1.5-3.4 0-6.3-.5-8.8-1.6s-4.6-2.7-6.3-4.8c-3.3-4-4.9-8.7-4.9-14.1 0-4.1.9-7.7 2.7-10.9 2.8-5.1 7.2-8.1 13.1-9.2 1.6-.5 3.3-.6 5.1-.6zm23.5 2.9c0-1.8 1-2.7 3.1-2.7h10.3c3.5 0 6.6.9 9.4 2.8 3 2 4.5 4.7 4.5 8.2 0 1.2-.1 2.2-.2 3-.2.6-.4 1.3-.8 2.1-.7 1.4-1.4 2.5-2.2 3.2-1.5 1.3-3.2 2.2-5 2.5l-1.3.3-1.7.2c-.4 0-1 0-1.8.1s-1.4.1-1.8.1l14.4 14c.8.8 1.3 1.6 1.3 2.4 0 .6-.3 1.1-.8 1.4-.3.2-.9.4-1.7.5-.4 0-.9-.1-1.2-.2-.5-.1-.9-.4-1.2-.7l-17.6-17.1v15.5c0 1.7-.9 2.6-2.8 2.6-.8 0-1.5-.2-2.1-.8-.4-.5-.6-1.1-.6-1.9v-35.5h-.2zm5.5 16h7.8c3.1 0 5.3-.7 6.7-2 1.2-1.2 1.8-2.9 1.8-5.3 0-1.9-.7-3.5-2.2-4.8-1.6-1.4-3.7-2.2-6.5-2.2h-7.5l-.1 14.3zm39.7-16.3c.4-.9 1-1.6 1.7-2 .6-.4 1.3-.6 2.2-.6 1.9 0 3.3 1.1 4.1 3.2l13.5 32.5c.7 1.7 1.1 2.9 1.2 3.5 0 .5-.3.9-.8 1.4-.5.4-1.1.6-1.8.6-.6 0-1.1-.1-1.6-.3s-.9-.6-1.1-1.2l-3-7.6h-21l-3.2 7.9c-.6.8-1.4 1.2-2.5 1.2-.7 0-1.3-.2-1.9-.5-.5-.3-.8-.8-.8-1.4 0-.3.1-.6.2-.9l.6-1.7 2.6-6.2 11.6-27.9zm12.8 25l-8.7-22h-.2l-8.7 22H275zm20.9-24.9l22.9 29.4h.3v-29.3c0-1.9.9-2.8 2.7-2.8 1.9 0 2.8.9 2.8 2.7l-.2 37.1c0 .2-.2.4-.5.7-.5.4-1.1.7-1.9.7s-1.5-.1-2-.4c-.4-.2-1-.8-1.8-1.8l-23.3-29.9h-.1v29.5c0 1.7-.9 2.5-2.7 2.5-.8 0-1.5-.2-2.1-.7-.5-.5-.7-1.1-.7-1.9v-35.8c0-1.9.8-2.8 2.5-2.8.8 0 1.5.2 2.1.6.5.4 1.1 1.1 2 2.2zm39.4-2.5h11.4c6.3 0 11.2 2 14.7 5.9s5.2 8.7 5.2 14.2c0 6.2-1.7 11.2-5.2 14.9-3.5 3.8-8.1 5.6-13.8 5.6h-12c-2.1 0-3.2-1-3.2-2.9v-35c0-1.3.5-2.1 1.5-2.5.4-.1.9-.2 1.4-.2zm2.5 4.4v31.9h8.1c4.5 0 8.1-1.4 10.8-4.2 2.3-2.4 3.6-5.8 3.9-9.9v-2c0-4.6-1.3-8.4-3.8-11.3-2.5-2.9-6.3-4.4-11.5-4.4h-7.5v-.1zm70.4-4.6c6.1 0 11 2.1 14.5 6.3 3.5 4.1 5.2 8.9 5.2 14.3v1.7c0 .2-.1.4-.1.5v1c-.1.5-.2 1.3-.5 2.3 0 .1-.2.7-.5 1.6-.7 2.2-1.6 4-2.8 5.6l4.9 4.4c.6.5.9 1.1.9 1.8 0 1.2-.8 1.8-2.4 2.1-.6 0-1-.1-1.4-.4l-.9-.6-4.3-3.8c-1.4 1.2-3.1 2.2-5.4 3-.8.3-1.9.6-3.5.9l-1.8.2-2 .1c-2.7.1-5.4-.4-8.1-1.5-5-2-8.5-5.7-10.5-11-.4-1.1-.8-2.4-1-3.9-.2-1.4-.3-2.8-.3-4.3 0-5.3 1.7-9.9 5-14.1 3.5-4.1 8.5-6.2 15-6.2zm-.1 36.9c3.7 0 6.8-1.1 9.1-3.2l-4.3-3.8-.4-.6-.1-.8c0-.6.2-1.1.7-1.6.5-.4 1.1-.7 1.8-.7.5 0 .9.1 1.1.2.3.1.7.4 1.1.7l3.1 2.7c1.3-3 2-6.1 2-9.3 0-3.9-1-7.5-3.1-10.8-1.6-2.7-4-4.3-7.2-5-1.1-.2-2.3-.4-3.5-.4-4.8 0-8.3 1.6-10.7 4.8-2.3 3-3.4 6.8-3.4 11.3 0 4.9 1.2 8.8 3.6 11.8 2.3 3.2 5.7 4.7 10.2 4.7zm28.3-36.9c1.9 0 2.8.9 2.8 2.7v24.2c0 2.6 1 4.9 2.9 6.8 1.8 1.8 4.3 2.8 7.8 3 .5 0 1 .1 1.6.1 1.9 0 3.6-.2 5.1-.7s2.7-1.2 3.8-2.2c2.1-1.9 3.1-4.3 3.1-7.3v-23.9c0-1.9.9-2.8 2.7-2.8 1.9 0 2.8.9 2.8 2.7v22.8c0 4.1-1.2 7.7-3.8 10.7-2.8 3.3-7.3 4.9-13.7 4.9-1.8 0-3.4-.1-4.8-.3-1.4-.2-2.7-.5-4-1-4-1.5-6.7-4.4-8.1-8.7-.6-1.8-.9-3.6-.9-5.5v-22.8c0-1.8.9-2.7 2.7-2.7zm43.1.2h16c1.8 0 2.7.8 2.7 2.3 0 .6-.2 1.2-.6 1.6-.4.4-1.1.7-2.2.7h-13.5v13.4h12.2c1.9 0 2.9.8 2.9 2.3s-.9 2.3-2.8 2.3h-12.3v13.4h13.5c1.9 0 2.8.8 2.8 2.4 0 .7-.2 1.2-.6 1.7-.4.4-1.2.6-2.4.6h-15.8c-.9 0-1.6-.2-2.2-.7-.5-.5-.8-1.1-.8-1.9v-35.3c0-1.8 1-2.8 3.1-2.8zm24.3-.2c1.4 0 2.5 1 3.3 3l11.5 29.9h.3l11.6-30c.8-1.9 1.9-2.8 3.3-2.8.7 0 1.3.2 1.8.5.5.4.7.9.7 1.5 0 .5-.2 1.3-.7 2.5l-.9 2.3-12 30.2c-.6 1.7-1.2 2.8-1.8 3.4-.5.5-1.2.7-2 .7-1 0-1.8-.3-2.3-.9-.4-.4-.7-1.1-1.2-2.2l-14.1-36c.1-1.4.9-2.1 2.5-2.1zm39.3 0c1.9 0 2.8.9 2.8 2.7v35.9c0 1.7-.9 2.5-2.8 2.5-.9 0-1.5-.2-2-.7-.5-.6-.7-1.1-.7-1.7v-35.9c0-1.9.9-2.8 2.7-2.8zm12.9 0c1.9 0 2.8.9 2.8 2.7v33.5h12.1c1.8 0 2.7.8 2.7 2.4 0 1.5-1 2.3-2.9 2.3h-14.3c-2.1 0-3.1-.9-3.1-2.7v-35.4c0-1.9.9-2.8 2.7-2.8zm24.9 0c1.9 0 2.8.9 2.8 2.7v33.5h12.1c1.8 0 2.7.8 2.7 2.4 0 1.5-1 2.3-2.9 2.3h-14.3c-2.1 0-3.1-.9-3.1-2.7v-35.4c0-1.9.9-2.8 2.7-2.8zm18.7 1.9c0-1.3.9-1.9 2.6-1.9 1.3 0 2.4.6 3.1 1.9l10.3 14.9 10.1-14.7c.8-1.4 1.8-2.1 3.1-2.1.8 0 1.4.2 1.9.6.5.4.7.9.7 1.4 0 .3-.1.6-.4 1l-.8 1.4-.9 1.3-4 5.7-7.1 10.4v16.6c0 1.8-.9 2.7-2.7 2.7-.8 0-1.5-.2-2.1-.7-.5-.5-.7-1.1-.7-1.9v-16.8l-12.1-17.6c-.2-.3-.4-.7-.8-1.2-.2-.2-.2-.6-.2-1z"/><path class="st0" d="M193.5 118.7c4.2 0 7.9.8 11 2.3 3 1.5 4.5 2.9 4.5 4.2 0 .6-.3 1.2-.8 1.6s-1.1.7-1.8.7-1.4-.2-2.2-.7l-2.6-1.5c-2.4-1.4-5.2-2.2-8.4-2.2-4.8 0-8.5 1.7-11 5-2.3 3.1-3.5 6.9-3.5 11.2 0 3.9 1 7.5 3.1 10.8 2.4 3.7 6.2 5.5 11.5 5.5 2 0 3.8-.3 5.4-.9 1.6-.6 3-1.6 4.2-2.9 2.3-2.5 3.5-5.3 3.5-8.6V141h-8c-.8 0-1.4-.2-2-.6-.5-.4-.7-1-.7-1.7 0-1.6.9-2.3 2.7-2.3h9.6c1.6 0 2.7.4 3.2 1.2.1.1.3.6.5 1.3l.1 1.1v.8c.1 2.4-.2 4.8-.9 7.2-1.6 5.2-4.6 8.7-9 10.4-2.6 1-5.6 1.5-9.3 1.5-3.4 0-6.3-.5-8.8-1.6s-4.6-2.7-6.3-4.8c-3.3-4-4.9-8.7-4.9-14.1 0-4.1.9-7.7 2.7-10.9 2.8-5.1 7.2-8.1 13.1-9.2 1.6-.5 3.3-.6 5.1-.6zm23.5 2.9c0-1.8 1-2.7 3.1-2.7h10.3c3.5 0 6.6.9 9.4 2.8 3 2 4.5 4.7 4.5 8.2 0 1.2-.1 2.2-.2 3-.2.6-.4 1.3-.8 2.1-.7 1.4-1.4 2.5-2.2 3.2-1.5 1.3-3.2 2.2-5 2.5l-1.3.3-1.7.2c-.4 0-1 0-1.8.1s-1.4.1-1.8.1l14.4 14c.8.8 1.3 1.6 1.3 2.4 0 .6-.3 1.1-.8 1.4-.3.2-.9.4-1.7.5-.4 0-.9-.1-1.2-.2-.5-.1-.9-.4-1.2-.7l-17.6-17.1v15.5c0 1.7-.9 2.6-2.8 2.6-.8 0-1.5-.2-2.1-.8-.4-.5-.6-1.1-.6-1.9v-35.5h-.2zm5.5 16h7.8c3.1 0 5.3-.7 6.7-2 1.2-1.2 1.8-2.9 1.8-5.3 0-1.9-.7-3.5-2.2-4.8-1.6-1.4-3.7-2.2-6.5-2.2h-7.5l-.1 14.3zm39.7-16.3c.4-.9 1-1.6 1.7-2 .6-.4 1.3-.6 2.2-.6 1.9 0 3.3 1.1 4.1 3.2l13.5 32.5c.7 1.7 1.1 2.9 1.2 3.5 0 .5-.3.9-.8 1.4-.5.4-1.1.6-1.8.6-.6 0-1.1-.1-1.6-.3s-.9-.6-1.1-1.2l-3-7.6h-21l-3.2 7.9c-.6.8-1.4 1.2-2.5 1.2-.7 0-1.3-.2-1.9-.5-.5-.3-.8-.8-.8-1.4 0-.3.1-.6.2-.9l.6-1.7 2.6-6.2 11.6-27.9zm12.8 25l-8.7-22h-.2l-8.7 22H275zm20.9-24.9l22.9 29.4h.3v-29.3c0-1.9.9-2.8 2.7-2.8 1.9 0 2.8.9 2.8 2.7l-.2 37.1c0 .2-.2.4-.5.7-.5.4-1.1.7-1.9.7s-1.5-.1-2-.4c-.4-.2-1-.8-1.8-1.8l-23.3-29.9h-.1v29.5c0 1.7-.9 2.5-2.7 2.5-.8 0-1.5-.2-2.1-.7-.5-.5-.7-1.1-.7-1.9v-35.8c0-1.9.8-2.8 2.5-2.8.8 0 1.5.2 2.1.6.5.4 1.1 1.1 2 2.2zm39.4-2.5h11.4c6.3 0 11.2 2 14.7 5.9s5.2 8.7 5.2 14.2c0 6.2-1.7 11.2-5.2 14.9-3.5 3.8-8.1 5.6-13.8 5.6h-12c-2.1 0-3.2-1-3.2-2.9v-35c0-1.3.5-2.1 1.5-2.5.4-.1.9-.2 1.4-.2zm2.5 4.4v31.9h8.1c4.5 0 8.1-1.4 10.8-4.2 2.3-2.4 3.6-5.8 3.9-9.9v-2c0-4.6-1.3-8.4-3.8-11.3-2.5-2.9-6.3-4.4-11.5-4.4h-7.5v-.1zm70.4-4.6c6.1 0 11 2.1 14.5 6.3 3.5 4.1 5.2 8.9 5.2 14.3v1.7c0 .2-.1.4-.1.5v1c-.1.5-.2 1.3-.5 2.3 0 .1-.2.7-.5 1.6-.7 2.2-1.6 4-2.8 5.6l4.9 4.4c.6.5.9 1.1.9 1.8 0 1.2-.8 1.8-2.4 2.1-.6 0-1-.1-1.4-.4l-.9-.6-4.3-3.8c-1.4 1.2-3.1 2.2-5.4 3-.8.3-1.9.6-3.5.9l-1.8.2-2 .1c-2.7.1-5.4-.4-8.1-1.5-5-2-8.5-5.7-10.5-11-.4-1.1-.8-2.4-1-3.9-.2-1.4-.3-2.8-.3-4.3 0-5.3 1.7-9.9 5-14.1 3.5-4.1 8.5-6.2 15-6.2zm-.1 36.9c3.7 0 6.8-1.1 9.1-3.2l-4.3-3.8-.4-.6-.1-.8c0-.6.2-1.1.7-1.6.5-.4 1.1-.7 1.8-.7.5 0 .9.1 1.1.2.3.1.7.4 1.1.7l3.1 2.7c1.3-3 2-6.1 2-9.3 0-3.9-1-7.5-3.1-10.8-1.6-2.7-4-4.3-7.2-5-1.1-.2-2.3-.4-3.5-.4-4.8 0-8.3 1.6-10.7 4.8-2.3 3-3.4 6.8-3.4 11.3 0 4.9 1.2 8.8 3.6 11.8 2.3 3.2 5.7 4.7 10.2 4.7zm28.3-36.9c1.9 0 2.8.9 2.8 2.7v24.2c0 2.6 1 4.9 2.9 6.8 1.8 1.8 4.3 2.8 7.8 3 .5 0 1 .1 1.6.1 1.9 0 3.6-.2 5.1-.7s2.7-1.2 3.8-2.2c2.1-1.9 3.1-4.3 3.1-7.3v-23.9c0-1.9.9-2.8 2.7-2.8 1.9 0 2.8.9 2.8 2.7v22.8c0 4.1-1.2 7.7-3.8 10.7-2.8 3.3-7.3 4.9-13.7 4.9-1.8 0-3.4-.1-4.8-.3-1.4-.2-2.7-.5-4-1-4-1.5-6.7-4.4-8.1-8.7-.6-1.8-.9-3.6-.9-5.5v-22.8c0-1.8.9-2.7 2.7-2.7zm43.1.2h16c1.8 0 2.7.8 2.7 2.3 0 .6-.2 1.2-.6 1.6-.4.4-1.1.7-2.2.7h-13.5v13.4h12.2c1.9 0 2.9.8 2.9 2.3s-.9 2.3-2.8 2.3h-12.3v13.4h13.5c1.9 0 2.8.8 2.8 2.4 0 .7-.2 1.2-.6 1.7-.4.4-1.2.6-2.4.6h-15.8c-.9 0-1.6-.2-2.2-.7-.5-.5-.8-1.1-.8-1.9v-35.3c0-1.8 1-2.8 3.1-2.8zm24.3-.2c1.4 0 2.5 1 3.3 3l11.5 29.9h.3l11.6-30c.8-1.9 1.9-2.8 3.3-2.8.7 0 1.3.2 1.8.5.5.4.7.9.7 1.5 0 .5-.2 1.3-.7 2.5l-.9 2.3-12 30.2c-.6 1.7-1.2 2.8-1.8 3.4-.5.5-1.2.7-2 .7-1 0-1.8-.3-2.3-.9-.4-.4-.7-1.1-1.2-2.2l-14.1-36c.1-1.4.9-2.1 2.5-2.1zm39.3 0c1.9 0 2.8.9 2.8 2.7v35.9c0 1.7-.9 2.5-2.8 2.5-.9 0-1.5-.2-2-.7-.5-.6-.7-1.1-.7-1.7v-35.9c0-1.9.9-2.8 2.7-2.8zm12.9 0c1.9 0 2.8.9 2.8 2.7v33.5h12.1c1.8 0 2.7.8 2.7 2.4 0 1.5-1 2.3-2.9 2.3h-14.3c-2.1 0-3.1-.9-3.1-2.7v-35.4c0-1.9.9-2.8 2.7-2.8zm24.9 0c1.9 0 2.8.9 2.8 2.7v33.5h12.1c1.8 0 2.7.8 2.7 2.4 0 1.5-1 2.3-2.9 2.3h-14.3c-2.1 0-3.1-.9-3.1-2.7v-35.4c0-1.9.9-2.8 2.7-2.8zm18.7 1.9c0-1.3.9-1.9 2.6-1.9 1.3 0 2.4.6 3.1 1.9l10.3 14.9 10.1-14.7c.8-1.4 1.8-2.1 3.1-2.1.8 0 1.4.2 1.9.6.5.4.7.9.7 1.4 0 .3-.1.6-.4 1l-.8 1.4-.9 1.3-4 5.7-7.1 10.4v16.6c0 1.8-.9 2.7-2.7 2.7-.8 0-1.5-.2-2.1-.7-.5-.5-.7-1.1-.7-1.9v-16.8l-12.1-17.6c-.2-.3-.4-.7-.8-1.2-.2-.2-.2-.6-.2-1z"/></svg>