<svg xmlns="http://www.w3.org/2000/svg" xmlns:xlink="http://www.w3.org/1999/xlink" width="208.587" height="61.352" viewBox="0 0 208.587 61.352">
  <defs>
    <clipPath id="clip-logo">
      <rect width="208.587" height="61.352" fill="#222221"></rect>
    </clipPath>
  </defs>
  <path d="M227.541,44.367H215.283v-22.1H199.366v22.1H187.108V.66h12.258V12.082h15.918V.66h12.258Z" transform="translate(-69.524 -0.245)" fill="#006288"></path>
  <path d="M279.548,9.655l5.25,15.823H274.682Zm-7.21-9L255.556,44.367H267.3l3.566-8.825h17.5l3.476,8.825h11.7L286.76.66Z" transform="translate(-94.957 -0.245)" fill="#006288"></path>
  <g>
    <g clip-path="url(#clip-logo)">
      <path d="M26.887,12.084a11.9,11.9,0,0,0-5.132-2.605,14.851,14.851,0,0,0-3.016-.4A6.349,6.349,0,0,0,15,10.018a3.031,3.031,0,0,0-1.3,2.6,2.632,2.632,0,0,0,.847,2,7.857,7.857,0,0,0,2.252,1.4,30.742,30.742,0,0,0,3.184,1.142c1.184.36,2.395.767,3.634,1.208a31.78,31.78,0,0,1,3.637,1.566,13.473,13.473,0,0,1,3.182,2.206,9.91,9.91,0,0,1,2.252,3.189,10.878,10.878,0,0,1,.845,4.5,14.83,14.83,0,0,1-1.158,5.911,12.53,12.53,0,0,1-3.446,4.669,16.345,16.345,0,0,1-5.663,3.041,25.344,25.344,0,0,1-7.746,1.083,23.671,23.671,0,0,1-4.379-.414A30.192,30.192,0,0,1,6.9,42.991a23.31,23.31,0,0,1-3.779-1.685C1.964,40.652,0,39.2,0,39.2l6.6-6.653s2.883,1.4,3.571,1.783a17.247,17.247,0,0,0,2.52.993,10.407,10.407,0,0,0,3.492.5,8.8,8.8,0,0,0,2.519-.312,4.347,4.347,0,0,0,1.654-.855,3.364,3.364,0,0,0,.908-1.207,3.422,3.422,0,0,0,.29-1.374,2.824,2.824,0,0,0-.868-2.126,7.587,7.587,0,0,0-2.272-1.437,28.241,28.241,0,0,0-3.2-1.125q-1.8-.518-3.657-1.185a29.4,29.4,0,0,1-3.656-1.6,12.651,12.651,0,0,1-3.2-2.374,11.065,11.065,0,0,1-2.272-3.52,13.124,13.124,0,0,1-.869-5.04,13.221,13.221,0,0,1,1.056-5.23A12.088,12.088,0,0,1,5.768,4.082,15.368,15.368,0,0,1,11.055,1.1,22.648,22.648,0,0,1,18.492,0a23.476,23.476,0,0,1,4.481.417,22.832,22.832,0,0,1,4.072,1.163,19.688,19.688,0,0,1,3.47,1.773,16.968,16.968,0,0,1,2.841,2.2Z" transform="translate(0 0)" fill="#222221"></path>
      <path d="M78.784,0a24.654,24.654,0,0,1,8.882,1.538,19.5,19.5,0,0,1,6.879,4.42,19.9,19.9,0,0,1,4.462,6.974,25.35,25.35,0,0,1,1.592,9.229,25.789,25.789,0,0,1-1.592,9.308,20.056,20.056,0,0,1-4.462,7.043,19.536,19.536,0,0,1-6.879,4.452,24.2,24.2,0,0,1-8.882,1.566,24.483,24.483,0,0,1-8.947-1.566A19.911,19.911,0,0,1,62.9,38.514a19.753,19.753,0,0,1-4.5-7.043A25.8,25.8,0,0,1,56.8,22.162a25.364,25.364,0,0,1,1.591-9.229,19.6,19.6,0,0,1,4.5-6.974,19.874,19.874,0,0,1,6.941-4.42A24.939,24.939,0,0,1,78.784,0M78.8,35.176q5.222,0,7.689-3.2t2.465-9.733q0-6.524-2.465-9.7T78.8,9.358q-5.373,0-7.859,3.181t-2.494,9.7q0,6.534,2.494,9.733t7.859,3.2" transform="translate(-21.106 0)" fill="#222221"></path>
      <rect width="12.118" height="43.707" transform="translate(82.703 0.415)" fill="#222221"></rect>
      <rect width="12.117" height="32.545" transform="translate(100.199 11.577)" fill="#222221"></rect>
      <rect width="12.117" height="7.865" transform="translate(100.199 0.415)" fill="#222221"></rect>
      <path d="M3.454,91.274a8.407,8.407,0,0,1-1.218-.083,7.324,7.324,0,0,1-.961-.2,5.649,5.649,0,0,1-.723-.253,5.543,5.543,0,0,1-.508-.253L0,90.46l.681-1.939.064.037a5.509,5.509,0,0,0,1.1.442,5.722,5.722,0,0,0,1.607.2,3.077,3.077,0,0,0,.779-.082,1.311,1.311,0,0,0,.481-.21.639.639,0,0,0,.242-.3,1.121,1.121,0,0,0,.069-.4.913.913,0,0,0-.441-.781A6.519,6.519,0,0,0,3,86.718c-.324-.118-.66-.253-1-.41a3.587,3.587,0,0,1-.9-.581,2.828,2.828,0,0,1-.656-.855,2.7,2.7,0,0,1-.254-1.227,3.074,3.074,0,0,1,.268-1.3,2.812,2.812,0,0,1,.759-.983A3.484,3.484,0,0,1,2.4,80.748a5.264,5.264,0,0,1,1.562-.219,6.314,6.314,0,0,1,3.016.708l.047.027-.019.05-.68,1.878-.062-.035a6.108,6.108,0,0,0-.93-.385,4,4,0,0,0-1.227-.165,2.212,2.212,0,0,0-1.139.216.71.71,0,0,0-.329.645.764.764,0,0,0,.119.436,1.189,1.189,0,0,0,.356.33,3.254,3.254,0,0,0,.542.272c.211.086.444.169.69.258a14.427,14.427,0,0,1,1.376.583,3.706,3.706,0,0,1,.985.679,2.547,2.547,0,0,1,.592.92,3.736,3.736,0,0,1,.191,1.265,2.731,2.731,0,0,1-1.016,2.262,4.819,4.819,0,0,1-3.022.8" transform="translate(0 -29.922)" fill="#222221"></path>
      <path d="M18.511,91.274a5.679,5.679,0,0,1-1.975-.343,4.5,4.5,0,0,1-1.623-1.019,4.765,4.765,0,0,1-1.092-1.68,6.275,6.275,0,0,1-.4-2.323,6.1,6.1,0,0,1,.415-2.323A4.893,4.893,0,0,1,14.95,81.9a4.649,4.649,0,0,1,1.622-1.029,5.616,5.616,0,0,1,1.939-.341,5.753,5.753,0,0,1,1.973.341A4.563,4.563,0,0,1,22.107,81.9,4.876,4.876,0,0,1,23.2,83.586a6.276,6.276,0,0,1,.4,2.323,6.424,6.424,0,0,1-.391,2.323,4.8,4.8,0,0,1-1.069,1.68,4.36,4.36,0,0,1-1.617,1.019,5.828,5.828,0,0,1-2.009.343m0-8.61a2.563,2.563,0,0,0-1.11.234,2.357,2.357,0,0,0-.815.662,2.976,2.976,0,0,0-.515,1.024,4.987,4.987,0,0,0,0,2.658,2.988,2.988,0,0,0,.515,1.014,2.25,2.25,0,0,0,.814.65,2.748,2.748,0,0,0,2.213,0,2.242,2.242,0,0,0,.824-.65,3.058,3.058,0,0,0,.515-1.014,4.652,4.652,0,0,0,.178-1.333,4.735,4.735,0,0,0-.178-1.342,3.052,3.052,0,0,0-.515-1.022,2.226,2.226,0,0,0-.823-.649,2.566,2.566,0,0,0-1.1-.232" transform="translate(-4.987 -29.923)" fill="#222221"></path>
      <path d="M38.724,91.207H31.856V80.9h2.4v8.21h4.473Z" transform="translate(-11.837 -30.06)" fill="#222221"></path>
      <rect width="2.392" height="10.306" transform="translate(28.529 50.841)" fill="#222221"></rect>
      <path d="M56.018,91.272c-.408,0-.89-.018-1.432-.052A12.282,12.282,0,0,1,52.976,91l-.05-.01V80.979l.05-.013a14.783,14.783,0,0,1,1.646-.2c.591-.033,1.071-.048,1.469-.048a8.983,8.983,0,0,1,2.368.292,4.9,4.9,0,0,1,1.837.938A4.24,4.24,0,0,1,61.48,83.59a6.266,6.266,0,0,1,.412,2.391,6.081,6.081,0,0,1-.412,2.33A4.384,4.384,0,0,1,60.3,89.965a5.039,5.039,0,0,1-1.849.982,8.662,8.662,0,0,1-2.437.325m-.7-2.116c.094.008.2.013.313.016.141.007.307.007.5.007a2.9,2.9,0,0,0,3.289-3.2,3.353,3.353,0,0,0-.769-2.382,3.277,3.277,0,0,0-2.446-.8c-.156,0-.314,0-.481.006-.138,0-.273.013-.407.026Z" transform="translate(-19.666 -29.993)" fill="#222221"></path>
      <path d="M77.594,91.207H75.03l-.015-.046c-.114-.359-.235-.724-.362-1.089L74.28,89H70.424c-.123.358-.246.72-.368,1.075s-.239.713-.358,1.085l-.014.046H67.193l.03-.084c.378-1.1.744-2.117,1.083-3.042.321-.881.656-1.765,1-2.634.333-.835.659-1.628.965-2.341.318-.742.65-1.471.989-2.171l.016-.036h2.233l.016.038c.328.7.66,1.43.98,2.169.314.713.64,1.505.975,2.341s.667,1.711,1,2.634c.351.959.718,1.982,1.083,3.042Zm-6.607-4.15H73.7c-.146-.41-.285-.806-.422-1.183q-.209-.59-.412-1.1c-.131-.336-.244-.628-.344-.881-.068-.174-.126-.326-.178-.449-.043.123-.1.271-.168.454-.1.255-.208.544-.333.882s-.265.7-.419,1.1c-.14.361-.285.757-.439,1.177" transform="translate(-24.967 -30.06)" fill="#222221"></path>
      <rect width="2.396" height="10.306" transform="translate(53.802 50.841)" fill="#222221"></rect>
      <path d="M101.2,91.14H98.524l-.177-.322-.4-.725c-.192-.345-.388-.676-.586-1s-.388-.617-.589-.915a9.3,9.3,0,0,0-.564-.757H95.175V91.14H92.78V80.994l.049-.009a13.519,13.519,0,0,1,1.545-.209c.513-.037.992-.055,1.425-.055a6.321,6.321,0,0,1,3.515.823,2.913,2.913,0,0,1,1.235,2.584,2.961,2.961,0,0,1-.5,1.78,3.342,3.342,0,0,1-1.357,1.041c.192.238.392.512.594.809.225.329.449.677.666,1.033s.436.74.636,1.119c.213.407.4.777.568,1.141Zm-6.022-5.663h.578a3.83,3.83,0,0,0,1.807-.312,1.113,1.113,0,0,0,.522-1.053,1.058,1.058,0,0,0-.529-1.009,3.443,3.443,0,0,0-1.624-.3c-.167,0-.311,0-.44.011-.111.008-.215.018-.314.025Z" transform="translate(-34.474 -29.993)" fill="#222221"></path>
      <path d="M115.69,91.207h-7.275V80.9h6.939v2.048H110.81v1.875h4.034V86.83H110.81v2.326h4.88Z" transform="translate(-40.283 -30.06)" fill="#222221"></path>
      <path d="M125.687,91.274a8.432,8.432,0,0,1-1.218-.083,7.446,7.446,0,0,1-.962-.2,5.778,5.778,0,0,1-.722-.253,5.322,5.322,0,0,1-.508-.253l-.046-.026.684-1.939.062.037a5.6,5.6,0,0,0,1.1.442,5.731,5.731,0,0,0,1.607.2,3.062,3.062,0,0,0,.779-.082,1.315,1.315,0,0,0,.481-.21.654.654,0,0,0,.243-.3,1.153,1.153,0,0,0,.067-.4.91.91,0,0,0-.439-.781,6.51,6.51,0,0,0-1.587-.7c-.321-.118-.659-.253-1-.41a3.644,3.644,0,0,1-.9-.581,2.879,2.879,0,0,1-.656-.855,2.727,2.727,0,0,1-.253-1.227,3.055,3.055,0,0,1,.268-1.3,2.794,2.794,0,0,1,.759-.983,3.5,3.5,0,0,1,1.186-.618,5.25,5.25,0,0,1,1.561-.219,6.287,6.287,0,0,1,3.016.708l.046.027-.019.05-.676,1.878-.064-.035a6.366,6.366,0,0,0-.931-.385,3.991,3.991,0,0,0-1.225-.165,2.222,2.222,0,0,0-1.141.216.714.714,0,0,0-.329.645.745.745,0,0,0,.119.436,1.244,1.244,0,0,0,.356.33,3.442,3.442,0,0,0,.543.272c.211.086.442.169.689.258a14.621,14.621,0,0,1,1.378.583,3.727,3.727,0,0,1,.985.679,2.5,2.5,0,0,1,.59.92,3.672,3.672,0,0,1,.193,1.265,2.739,2.739,0,0,1-1.014,2.262,4.839,4.839,0,0,1-3.025.8" transform="translate(-45.417 -29.922)" fill="#222221"></path>
      <path d="M146.983,91.139h-2.4V80.993l.052-.009a13.579,13.579,0,0,1,1.579-.209c.54-.036,1.03-.055,1.463-.055a6.38,6.38,0,0,1,3.5.808,2.983,2.983,0,0,1,1.237,2.671,3.02,3.02,0,0,1-1.253,2.7,6.386,6.386,0,0,1-3.529.826h-.652Zm0-5.487h.652a3.825,3.825,0,0,0,1.748-.314,1.179,1.179,0,0,0,.566-1.151,1.4,1.4,0,0,0-.145-.674,1.119,1.119,0,0,0-.415-.426,1.879,1.879,0,0,0-.671-.226,5.383,5.383,0,0,0-.893-.063c-.168,0-.331,0-.485.011-.133.008-.253.018-.358.025Z" transform="translate(-53.724 -29.993)" fill="#222221"></path>
      <path d="M163.723,91.274a5.679,5.679,0,0,1-1.975-.343,4.476,4.476,0,0,1-1.623-1.019,4.8,4.8,0,0,1-1.093-1.68,6.289,6.289,0,0,1-.4-2.323,6.086,6.086,0,0,1,.413-2.323,4.97,4.97,0,0,1,1.112-1.687,4.673,4.673,0,0,1,1.625-1.029,5.6,5.6,0,0,1,1.937-.341,5.745,5.745,0,0,1,1.972.341,4.573,4.573,0,0,1,1.626,1.029,4.9,4.9,0,0,1,1.092,1.687,6.354,6.354,0,0,1,.4,2.323,6.426,6.426,0,0,1-.39,2.323,4.8,4.8,0,0,1-1.07,1.68,4.361,4.361,0,0,1-1.617,1.019,5.831,5.831,0,0,1-2.01.343m0-8.61a2.572,2.572,0,0,0-1.111.234,2.391,2.391,0,0,0-.816.662,3.083,3.083,0,0,0-.513,1.024,4.988,4.988,0,0,0,0,2.658,3.042,3.042,0,0,0,.513,1.014,2.293,2.293,0,0,0,.816.65,2.751,2.751,0,0,0,2.214,0,2.24,2.24,0,0,0,.823-.65,3.007,3.007,0,0,0,.512-1.014,4.544,4.544,0,0,0,.179-1.333,4.649,4.649,0,0,0-.179-1.342,3.014,3.014,0,0,0-.512-1.022,2.239,2.239,0,0,0-.823-.649,2.565,2.565,0,0,0-1.1-.232" transform="translate(-58.944 -29.923)" fill="#222221"></path>
      <path d="M181.309,91.412a5.118,5.118,0,0,1-1.856-.307,3.528,3.528,0,0,1-1.3-.855,3.428,3.428,0,0,1-.755-1.3,5.41,5.41,0,0,1-.243-1.658V80.9h2.392v6.2a3.336,3.336,0,0,0,.137,1.031,1.857,1.857,0,0,0,.364.684,1.329,1.329,0,0,0,.559.37,2.165,2.165,0,0,0,.73.117,1.79,1.79,0,0,0,1.3-.5,2.365,2.365,0,0,0,.5-1.7V80.9h2.4v6.395a5.288,5.288,0,0,1-.251,1.666,3.337,3.337,0,0,1-2.092,2.15,5.282,5.282,0,0,1-1.887.3" transform="translate(-65.826 -30.06)" fill="#222221"></path>
      <path d="M201.522,91.14H198.85l-.018-.032c-.185-.339-.373-.672-.562-1.015-.2-.365-.4-.69-.583-1s-.392-.616-.591-.915a8.667,8.667,0,0,0-.563-.757H195.5V91.14h-2.4V80.994l.05-.009a13.5,13.5,0,0,1,1.544-.209c.513-.037.993-.055,1.426-.055a6.317,6.317,0,0,1,3.515.823,2.908,2.908,0,0,1,1.237,2.584,2.964,2.964,0,0,1-.5,1.78,3.3,3.3,0,0,1-1.356,1.041c.195.244.394.515.592.809.231.337.454.684.665,1.033s.436.74.638,1.119.4.767.569,1.141Zm-6.02-5.663h.578a3.808,3.808,0,0,0,1.8-.312,1.11,1.11,0,0,0,.523-1.053,1.056,1.056,0,0,0-.529-1.009,3.435,3.435,0,0,0-1.624-.3c-.168,0-.312,0-.441.011l-.312.025Z" transform="translate(-71.752 -29.993)" fill="#222221"></path>
      <path d="M259.655,91.207h-2.564l-.013-.046c-.119-.372-.24-.738-.361-1.089L256.344,89h-3.857l-.368,1.075c-.124.361-.244.725-.356,1.085l-.014.046h-2.49l.028-.084c.386-1.11.748-2.131,1.08-3.042.342-.931.68-1.813,1-2.634s.647-1.6.965-2.341.65-1.471.989-2.171l.014-.036h2.232l.017.038c.322.679.641,1.388.982,2.169.324.747.653,1.538.973,2.341.327.83.664,1.711,1,2.634.348.941.71,1.964,1.085,3.042Zm-6.606-4.15h2.712c-.143-.41-.285-.806-.418-1.183s-.275-.746-.412-1.1c-.128-.325-.239-.613-.336-.863l-.009-.018c-.068-.174-.128-.326-.175-.449-.042.119-.1.266-.172.454-.1.255-.208.544-.331.882s-.267.7-.42,1.1c-.141.363-.288.762-.439,1.177" transform="translate(-92.616 -30.06)" fill="#222221"></path>
      <path d="M271.187,91.272c-.553,0-1.112-.018-1.657-.052a12.114,12.114,0,0,1-1.721-.244l-.048-.01V80.994l.048-.009c.463-.087.98-.152,1.538-.2a13.676,13.676,0,0,1,3.328.076,4.259,4.259,0,0,1,1.412.482,2.577,2.577,0,0,1,.932.913,2.681,2.681,0,0,1,.336,1.39,2.189,2.189,0,0,1-1.09,1.909,2.384,2.384,0,0,1,1.229.982,2.974,2.974,0,0,1,.358,1.458,2.816,2.816,0,0,1-1.186,2.457,6.1,6.1,0,0,1-3.48.821m-1.09-2.054c.167.013.325.026.481.034.218.016.427.018.639.018a3.81,3.81,0,0,0,1.62-.292,1.018,1.018,0,0,0,.593-1.029,1,1,0,0,0-.5-.954,3.052,3.052,0,0,0-1.47-.294H270.1Zm0-4.386h1.046a3.019,3.019,0,0,0,1.469-.263.878.878,0,0,0,.423-.821.832.832,0,0,0-.435-.811,2.894,2.894,0,0,0-1.34-.244c-.194,0-.4.005-.626.005-.193.006-.372.019-.537.03Z" transform="translate(-99.492 -29.993)" fill="#222221"></path>
      <rect width="2.396" height="10.306" transform="translate(178.002 50.841)" fill="#222221"></rect>
      <path d="M295.112,91.207h-2.4V82.98h-3.043V80.9h8.484V82.98h-3.045Z" transform="translate(-107.634 -30.06)" fill="#222221"></path>
      <path d="M312.92,91.207h-2.565l-.013-.046c-.118-.372-.24-.738-.362-1.089L309.607,89h-3.855c-.124.358-.246.72-.369,1.075s-.248.73-.358,1.085l-.013.046h-2.49l.029-.084c.378-1.1.743-2.117,1.082-3.042s.677-1.813,1-2.634.649-1.6.964-2.341.644-1.459.988-2.171l.016-.036h2.232l.015.038c.324.684.653,1.413.983,2.169.324.74.65,1.528.974,2.341.331.838.669,1.723,1,2.634.346.941.71,1.964,1.085,3.042Zm-6.608-4.15h2.714c-.145-.41-.285-.806-.421-1.183s-.275-.753-.413-1.1c-.124-.323-.234-.605-.33-.855l-.011-.026c-.068-.174-.128-.326-.178-.449-.045.126-.1.277-.17.454-.1.255-.208.544-.332.882s-.264.7-.419,1.1c-.139.361-.287.757-.44,1.177" transform="translate(-112.408 -30.06)" fill="#222221"></path>
      <path d="M323.853,91.207h-2.394V82.98h-3.044V80.9H326.9V82.98h-3.047Z" transform="translate(-118.313 -30.06)" fill="#222221"></path>
      <path d="M222.571,91.207H215.7V80.9h2.4v8.21h4.47Z" transform="translate(-80.148 -30.06)" fill="#222221"></path>
      <path d="M242.282,91.207h-2.4V86.888h-3.695v4.319H233.8V80.9h2.393v3.9h3.695V80.9h2.4Z" transform="translate(-86.872 -30.06)" fill="#222221"></path>
      <path d="M227.258,80.9a7.548,7.548,0,0,1-.154,1.315,7.251,7.251,0,0,1-.441,1.41l-.031.072,1.6.364.035.01.025-.029a5.45,5.45,0,0,0,.867-1.526,4.975,4.975,0,0,0,.33-1.616Z" transform="translate(-84.21 -30.06)" fill="#222221"></path>
    </g>
  </g>
</svg>