<svg xmlns="http://www.w3.org/2000/svg" viewBox="0 0 693.5 113.2"><style>.svg-primary{fill:#ec5f71}.svg-orange{fill:#f6a000}.svg-green{fill:#c7cf00}.svg-blue{fill:#44bdd2}</style><path class="svg-primary" d="M195.2 27.6c-2.7 0-4.9-.9-6.8-2.8-1.9-1.8-2.8-4.1-2.8-6.8s.9-4.9 2.8-6.8c1.8-1.8 4.1-2.7 6.8-2.7 4.2 0 7.1 1.9 8.8 5.7.5 1.1.8 2.4.8 3.7 0 2.7-.9 5-2.8 6.8-1.9 2-4.1 2.9-6.8 2.9M178.5 42.9c-.5 6.6-2.2 15.2-5.3 25.8-4.3 15-9.1 25.7-14.4 32.1-1.8 2.1-3.7 3.5-5.6 4-1.9.5-3.8.8-5.7.8-1.9 0-3.6-.2-5-.6-1.4-.4-2.6-1.1-3.5-2-1.6-1.5-3-4.4-4.2-8.5-2.6-8.6-5.2-17-8-25.2l-8.5-24.5c-.3-.9-.5-1.7-.5-2.4 0-2.3 1.5-3.5 4.6-3.5h5.3c1.4 0 2.5.3 3.3.9.8.6 1.6 1.8 2.1 3.5 5.1 15.1 9.4 30.3 12.9 45.7.4 2 1.3 3 2.6 3 1 0 1.9-.8 2.8-2.5 4.2-7.8 7.6-19.6 10.2-35.2.7-4.1 1.2-7.2 1.6-9.4.3-2.2.7-3.5 1-4 .3-.5.7-.9 1.1-1.2.8-.5 1.6-.8 2.6-.8h6.7c2.6 0 3.9 1.3 3.9 4M649.6 75.1l-.1 1.1c0 5.3 1.7 9.6 5.1 12.9 3.5 3.4 8.4 5.1 14.5 5.1 5.5 0 10.7-1.7 15.5-5 .9-.6 1.7-.9 2.4-.9 1.4 0 2.5.7 3.3 2.2l1.6 3.3c.4.8.5 1.6.5 2.5 0 .9-.4 1.8-1.2 2.8-.8 1-1.8 1.8-3.1 2.6s-2.8 1.5-4.5 2c-1.7.6-3.4 1.1-5.2 1.5-3.6.8-7.3 1.2-11.2 1.2s-7.8-.7-11.8-2.2c-4-1.5-7.4-3.6-10.3-6.5-6.2-6-9.3-14.2-9.3-24.5 0-18.1 6.4-29.3 19.1-33.7 4-1.4 8.1-2 12.3-2 4.2 0 7.8.4 10.7 1.3 2.9.9 5.5 2.2 7.6 4 4.5 3.7 6.8 8.9 6.8 15.5 0 6.5-2.7 11.5-8 14.9-4.6 3-10.8 4.5-18.4 4.5-4.8 0-10.2-.9-16.3-2.6M678.4 58c0-5.6-3.7-8.4-11.2-8.4-7.1 0-12.1 2.6-15 7.8-1 1.8-1.7 4.1-2 6.8 3.4 1.7 7.6 2.5 12.8 2.5 10.3.1 15.4-2.8 15.4-8.7M202.1 88.8c0 2.8.9 4.2 2.8 4.2.6 0 1.3-.2 2.1-.5 1.5-.7 2.6-1 3.1-1 .8 0 1.5.6 2 1.7l1.8 4.1c.3.7.5 1.3.5 1.9 0 1.7-1.4 3.2-4.3 4.7-2.7 1.4-5.4 2.1-8.1 2.1s-4.8-.3-6.4-.9c-1.6-.6-3-1.6-4.1-2.9-2.3-2.8-3.4-7.4-3.4-13.7V42.8c0-1.1.3-2 .9-2.8.6-.7 1.4-1.1 2.2-1.1h7.8c.9 0 1.6.4 2.2 1.1.6.7.9 1.7.9 2.8v46zM257 47.8c0 2.2-1.2 3.3-3.7 3.3h-16.5v36.8c0 4 2 6 5.9 6 2.5 0 5.8-1.2 9.8-3.7.8-.5 1.6-.8 2.5-.8.9 0 1.6.6 2.2 1.9l1.3 3c.5 1.2.8 2.2.8 3s-.6 1.8-1.8 2.8c-1.2 1.1-2.8 2-4.7 2.9-4.3 1.9-8.3 2.9-11.8 2.9s-6.3-.4-8.3-1.1c-2-.7-3.8-1.8-5.2-3.2-3.1-3-4.7-7.4-4.7-13.2V51.1h-4.9c-2.5 0-3.7-1.1-3.7-3.3v-3.3c0-.9.2-1.6.7-2.1.5-.5 1.4-.9 2.8-1.2l5.9-1.7 2.2-13.8c.4-2.6 1.5-3.9 3.2-3.9h4.9c.9 0 1.6.4 2.2 1.1.6.7.9 1.6.9 2.8v13.2h16.5c2.5 0 3.7 1.1 3.7 3.2v5.7zM321.5 101.8c0 2.1-1 3.1-3 3.1h-5.7c-1.5 0-2.4-.3-2.8-.9-.3-.6-.5-1.2-.5-1.6 0-.5-.1-1.1-.2-1.8-.2-1.9-.6-4-1-6.2-3 5.6-7.8 9.3-14.3 11.1-2.3.6-4.8.9-7.6.9s-5.5-.5-8.3-1.4c-2.8-.9-5.2-2.3-7.4-4.1-4.8-4.1-7.3-9.4-7.3-16 0-7.2 2.7-12.7 8-16.6 4.4-3.1 10-4.6 16.9-4.6 6.9 0 12.7 2 17.4 6 .1-1.3.2-3 .2-5s-.4-4-1.2-6c-.8-2-1.9-3.6-3.3-5-3-2.6-7.1-3.9-12.4-3.9-4.8 0-9.6 1.3-14.5 3.9-.9.5-1.8.8-2.5.8-1.1 0-2.1-1-3-3.1-1.1-2.1-1.6-3.6-1.6-4.6 0-1.7 1.3-3.4 3.9-5 4.9-3 11.5-4.6 19.7-4.6 7.5 0 13.7 2 18.6 6.1 5.8 4.9 8.7 11.9 8.7 20.8 0 4-.6 9-1.9 15 3.2 9.8 5 17.3 5.1 22.7M282.3 77c-1.6 1.2-2.7 2.4-3.4 3.5-.7 1.2-1 2.5-1 4.1 0 1.6.3 3 .8 4.2.6 1.2 1.4 2.3 2.4 3.1 2.1 1.7 4.6 2.5 7.2 2.5 2.7 0 4.9-.3 6.6-.9 1.7-.6 3.2-1.4 4.4-2.4 2.7-2.1 4-4.3 4-6.7-.2-2.9-1.9-5.2-4.9-6.9-2.7-1.6-5.9-2.3-9.5-2.3-2.8 0-5 .6-6.6 1.8M347 88.8c0 2.8 1 4.2 2.9 4.2.6 0 1.4-.2 2.4-.5 1.8-.7 2.9-1 3.3-1 .9 0 1.6.6 2.1 1.7l1.8 4.2c.2.6.4 1.1.4 1.6 0 .9-.7 2-2.2 3.3-3 2.5-6.8 3.7-11.6 3.7-8.7 0-13.1-5.8-13.1-17.5V5c0-1.1.3-2 .9-2.7.6-.7 1.4-1.1 2.2-1.1h7.8c.9 0 1.6.4 2.2 1.1.6.7.9 1.6.9 2.7v83.8zM381.4 88.8c0 2.8 1 4.2 2.9 4.2.6 0 1.4-.2 2.4-.5 1.8-.7 2.9-1 3.3-1 .9 0 1.6.6 2.1 1.7l1.8 4.2c.2.6.4 1.1.4 1.6 0 .9-.7 2-2.2 3.3-3 2.5-6.8 3.7-11.6 3.7-8.7 0-13.1-5.8-13.1-17.5V5c0-1.1.3-2 .9-2.7.6-.7 1.4-1.1 2.2-1.1h7.8c.9 0 1.6.4 2.2 1.1.6.7.9 1.6.9 2.7v83.8zM415.7 88.8c0 2.8.9 4.2 2.8 4.2.6 0 1.3-.2 2.1-.5 1.5-.7 2.6-1 3.1-1 .8 0 1.5.6 2 1.7l1.8 4.1c.3.7.5 1.3.5 1.9 0 1.7-1.4 3.2-4.3 4.7-2.7 1.4-5.4 2.1-8.1 2.1s-4.8-.3-6.4-.9c-1.6-.6-3-1.6-4.1-2.9-2.3-2.8-3.4-7.4-3.4-13.7V42.8c0-1.1.3-2 .9-2.8.6-.7 1.4-1.1 2.2-1.1h7.8c.9 0 1.6.4 2.2 1.1.6.7.9 1.7.9 2.8v46zM490.6 101.8c0 2.1-1 3.1-3 3.1h-5.7c-1.5 0-2.4-.3-2.8-.9-.3-.6-.5-1.2-.5-1.6 0-.5-.1-1.1-.2-1.8-.2-1.9-.6-4-1-6.2-3 5.6-7.8 9.3-14.3 11.1-2.3.6-4.8.9-7.6.9s-5.5-.5-8.3-1.4c-2.8-.9-5.2-2.3-7.4-4.1-4.8-4.1-7.3-9.4-7.3-16 0-7.2 2.7-12.7 8-16.6 4.4-3.1 10-4.6 16.9-4.6 6.9 0 12.7 2 17.4 6 .1-1.3.2-3 .2-5s-.4-4-1.2-6c-.8-2-1.9-3.6-3.3-5-3-2.6-7.1-3.9-12.4-3.9-4.8 0-9.6 1.3-14.5 3.9-.9.5-1.8.8-2.5.8-1.1 0-2.1-1-3-3.1-1.1-2.1-1.6-3.6-1.6-4.6 0-1.7 1.3-3.4 3.9-5 4.9-3 11.5-4.6 19.7-4.6 7.5 0 13.7 2 18.6 6.1 5.8 4.9 8.7 11.9 8.7 20.8 0 4-.6 9-1.9 15 3.2 9.8 5 17.3 5.1 22.7M451.4 77c-1.6 1.2-2.7 2.4-3.4 3.5-.7 1.2-1 2.5-1 4.1 0 1.6.3 3 .8 4.2.6 1.2 1.4 2.3 2.4 3.1 2.1 1.7 4.6 2.5 7.2 2.5 2.7 0 4.9-.3 6.6-.9 1.7-.6 3.2-1.4 4.4-2.4 2.7-2.1 4-4.3 4-6.7-.2-2.9-1.9-5.2-4.9-6.9-2.7-1.6-5.9-2.3-9.5-2.3-2.8 0-5 .6-6.6 1.8M501.4 43.1c0-2.8 1.3-4.2 4-4.2h3.2c2.2 0 3.7.8 4.4 2.5 1.1 2.3 2 5.4 2.8 9.2 3.5-6.4 8.7-10.5 15.7-12.3 2.2-.6 4.9-.9 8.2-.9 3.3 0 6.3.7 9 2.1 2.8 1.4 5 3.3 6.6 5.7 3 4.4 4.4 10.9 4.4 19.5V101c0 1.1-.4 2-1.1 2.8-.7.7-1.7 1.1-3.1 1.1H550c-1.5 0-2.6-.4-3.3-1.1-.7-.7-1.1-1.7-1.1-2.8V64.7c0-10-3.7-15-11-15-4.3 0-8.2 1.8-11.8 5.4-3.8 3.9-5.7 8.3-5.7 13.5v32.5c0 1.1-.3 2-1 2.8-.7.7-1.7 1.1-3 1.1h-6c-1.4 0-2.4-.4-3.1-1.1-.7-.7-1.1-1.7-1.1-2.8v-36c0-7.8-.3-13.3-.8-16.4-.4-3.1-.7-5-.7-5.6M619.4 65c-3.2 0-4.8-1.6-4.8-4.7 0-3.6-1.1-6.4-3.3-8.3-1.9-1.7-4.5-2.5-7.7-2.5s-5.9.7-8 2c-2.1 1.3-3.8 3-5.2 5.1-2.6 4.1-3.9 8.9-3.9 14.6 0 10.7 3.2 17.6 9.7 21 2.3 1.2 4.9 1.8 7.8 1.8 2.8 0 5.2-.3 7-.9 1.8-.6 3.5-1.3 4.9-2 1.4-.7 2.7-1.4 3.8-2 1.1-.6 2-.9 2.7-.9 1.4 0 2.5.6 3.3 1.9l1.3 2.2c.6 1 .9 2 .9 3s-.4 2-1.2 3c-.8 1-1.8 2-3.1 2.8-1.3.9-2.8 1.6-4.5 2.3-1.7.7-3.4 1.3-5.2 1.8-8.6 2.3-16.4 2-23.5-1.1-8-3.4-13.4-9.4-16.4-18-1.5-4.3-2.2-9.1-2.2-14.4 0-5.3.8-10.1 2.4-14.3 1.6-4.2 3.8-7.8 6.6-10.7 5.8-6 13.4-9 22.8-9 8.3 0 14.6 2.2 19 6.5 3.7 3.7 5.6 8.4 5.6 13.9 0 4.7-2.4 7.1-7.3 7.1h-1.5zM409.7 7.2c-1-.1-1.9 0-2.8.2-2.8.5-4.9 2.2-6.3 5-1.3 2.4-1.5 4.8-.7 7.3.1.3.2.5.3.8.9 2.1 2.3 3.8 4.4 4.8 2.4 1.3 4.9 1.5 7.3.6.8-.2 1.5-.6 2.1-1 1.5-.9 2.6-2.1 3.5-3.8.8-1.6 1.2-3.3 1.1-5 0-.7-.2-1.5-.4-2.3-.7-2.5-2.3-4.4-4.7-5.6-1.4-.6-2.6-.9-3.8-1"></path><path class="svg-orange" d="M27.2 44.1c-5.6 0-5.6-8.5 0-8.5 3.9 0 7.1-3.2 7.1-7.1 0-8.6 7-15.6 15.6-15.6 5.6 0 5.6 8.5 0 8.5-3.9 0-7.1 3.2-7.1 7.1 0 8.6-7 15.6-15.6 15.6m.5-28.5c3 0 5.4 2.4 5.4 5.4 0 3-2.4 5.4-5.4 5.4-3 0-5.4-2.4-5.4-5.4 0-3 2.4-5.4 5.4-5.4"></path><path class="svg-green" d="M27.2 44.1c-5.6 0-5.6-8.5 0-8.5 3.9 0 7.1-3.2 7.1-7.1 0-8.6 7-15.6 15.6-15.6 5.6 0 5.6 8.5 0 8.5-3.9 0-7.1 3.2-7.1 7.1 0 8.6-7 15.6-15.6 15.6m.5-28.5c3 0 5.4 2.4 5.4 5.4 0 3-2.4 5.4-5.4 5.4-3 0-5.4-2.4-5.4-5.4 0-3 2.4-5.4 5.4-5.4"></path><path class="svg-primary" d="M35.5 86.4c0 5.6-8.5 5.6-8.5 0 0-3.9-3.2-7.1-7.1-7.1-8.6 0-15.6-7-15.6-15.6 0-5.6 8.5-5.6 8.5 0 0 3.9 3.2 7.1 7.1 7.1 8.6 0 15.6 6.9 15.6 15.6m-28.6-.6c0-3 2.4-5.4 5.4-5.4 3 0 5.4 2.4 5.4 5.4 0 3-2.4 5.4-5.4 5.4-3 .1-5.4-2.4-5.4-5.4"></path><path class="svg-green" d="M77.7 78.1c5.6 0 5.6 8.5 0 8.5-3.9 0-7.1 3.2-7.1 7.1 0 8.6-7 15.6-15.6 15.6-5.6 0-5.6-8.5 0-8.5 3.9 0 7.1-3.2 7.1-7.1 0-8.7 7-15.6 15.6-15.6m-.5 28.6c-3 0-5.4-2.4-5.4-5.4 0-3 2.4-5.4 5.4-5.4 3 0 5.4 2.4 5.4 5.4 0 2.9-2.4 5.4-5.4 5.4"></path><path class="svg-orange" d="M69.4 35.8c0-5.6 8.5-5.6 8.5 0 0 3.9 3.2 7.1 7.1 7.1 8.6 0 15.6 7 15.6 15.6 0 5.6-8.5 5.6-8.5 0 0-3.9-3.2-7.1-7.1-7.1-8.6 0-15.6-6.9-15.6-15.6m28.6.6c0 3-2.4 5.4-5.4 5.4-3 0-5.4-2.4-5.4-5.4 0-3 2.4-5.4 5.4-5.4 3-.1 5.4 2.4 5.4 5.4M22.6 67c-3.9 3.9-9.9-2.1-6-6 2.8-2.8 2.8-7.3 0-10.1-6.1-6.1-6.1-16 0-22.1 3.9-4 10 2.1 6 6-2.8 2.8-2.8 7.3 0 10 6.1 6.2 6.1 16.1 0 22.2M2.7 46.4c2.1-2.1 5.6-2.1 7.7 0 2.1 2.1 2.1 5.6 0 7.7-2.1 2.1-5.6 2.1-7.7 0-2.1-2.2-2.1-5.6 0-7.7"></path><path class="svg-blue" d="M58.3 91c4 3.9-2.1 10-6 6-2.8-2.8-7.3-2.8-10.1 0-6.1 6.1-16 6.1-22.1 0-3.9-3.9 2.1-9.9 6-6 2.8 2.8 7.3 2.8 10 0 6.2-6.1 16.1-6.1 22.2 0m-20.6 19.8c-2.1-2.1-2.1-5.6 0-7.7 2.1-2.1 5.6-2.1 7.7 0 2.1 2.1 2.1 5.6 0 7.7-2.1 2.1-5.6 2.1-7.7 0"></path><path class="svg-primary" d="M82.3 55.2c3.9-3.9 9.9 2.1 6 6-2.8 2.8-2.8 7.3 0 10.1 6.1 6.1 6.1 16 0 22.1-3.9 4-10-2.1-6-6 2.8-2.8 2.8-7.3 0-10.1-6.1-6.1-6.1-16 0-22.1m19.9 20.6c-2.1 2.1-5.6 2.1-7.7 0-2.1-2.1-2.1-5.6 0-7.7 2.1-2.1 5.6-2.1 7.7 0 2.1 2.2 2.1 5.6 0 7.7"></path><path class="svg-blue" d="M46.6 31.2c-4-3.9 2.1-9.9 6-6 2.8 2.8 7.3 2.8 10.1 0 6.1-6.1 16-6.1 22.1 0 3.9 3.9-2.1 10-6 6-2.8-2.8-7.3-2.8-10.1 0-6.1 6.1-16 6.1-22.1 0m20.6-19.8c2.1 2.1 2.1 5.6 0 7.7-2.1 2.1-5.6 2.1-7.7 0-2.1-2.1-2.1-5.6 0-7.7 2.1-2.1 5.6-2.1 7.7 0"></path></svg>